<svg id="Layer_1" data-name="Layer 1" xmlns="http://www.w3.org/2000/svg" viewBox="0 0 315.18 47.89"><defs><style>.cls-1{fill:#6d6e71;}.cls-2{fill:#013e31;}.cls-3{fill:#75253d;}</style></defs><title>asan</title><path class="cls-1" d="M114.75,74.28a12.79,12.79,0,0,1,0,16.65,9.54,9.54,0,0,1-14.69,0,12.73,12.73,0,0,1,0-16.65,9.58,9.58,0,0,1,14.69,0ZM103.84,88.83q1.25,2.76,3.56,2.76c1.55,0,2.72-.92,3.56-2.77a14.9,14.9,0,0,0,1.25-6.18A15.37,15.37,0,0,0,111,76.45c-.82-1.82-2-2.76-3.58-2.76s-2.73.94-3.56,2.76a14.89,14.89,0,0,0-1.25,6.19A14.66,14.66,0,0,0,103.84,88.83ZM131,81.34c.83,0,1.21.52,1.24,1.67s-.4,1.75-1.24,1.75l-4.42,0V101a3.35,3.35,0,0,1-.79,2.18,2.38,2.38,0,0,1-2,1h-1.48a1,1,0,0,1-.73-.22.92.92,0,0,1-.25-.73V72.07a1.77,1.77,0,0,0-1-1.72c-.72-.38-1.29-.68-1.71-.93s-.49-.46-.38-.79.3-.48.57-.43l7,.76c.43.05.65.18.72.37a1.46,1.46,0,0,1,.07.41V81.67Z" transform="translate(-12.49 -61.09)"/><path class="cls-1" d="M141.13,86.36a24.12,24.12,0,0,1-5.07,3.28c-.76.33-1.25.3-1.51-.12s-.13-.83.38-1.25a26.54,26.54,0,0,0,6.34-7.52c1.61-2.85,2.42-5.15,2.45-6.9,0-.68-.46-1.25-1.36-1.68a9.94,9.94,0,0,0-1.82-.76.67.67,0,0,1-.42-.81c.06-.43.32-.61.83-.58l8.59.73a.9.9,0,0,1,.77.46,1.35,1.35,0,0,1,.13.92,14.38,14.38,0,0,1-1.05,3.56,28.7,28.7,0,0,1-1.91,3.56,12.42,12.42,0,0,0,2.08,1.52,12.07,12.07,0,0,0,2.26,1c.74.21,1.28.36,1.59.46a3.41,3.41,0,0,1,1.26.9,8.24,8.24,0,0,1,1.76,2.61,2,2,0,0,1-.08,2.15,2,2,0,0,1-1.58.68,3.7,3.7,0,0,1-2.21-.71A19.41,19.41,0,0,1,149,84.85a34.18,34.18,0,0,1-3.07-3.43A32.88,32.88,0,0,1,141.13,86.36Zm7.44,5.19.38.15c.24.08.36.33.36.76V98a3.22,3.22,0,0,0,.43,1.84c.24.37.88.56,1.91.56h13.21c1.07,0,1.61.4,1.61,1.25s-.54,1.29-1.61,1.29H147.71a5.68,5.68,0,0,1-2.46-.72,2.9,2.9,0,0,1-1.43-2.9V94.24a1.44,1.44,0,0,0-1-1.36c-.68-.28-1.18-.51-1.48-.66-.45-.21-.61-.47-.47-.8s.31-.45.58-.41Zm21.7-12.73c.79-.06,1.2.5,1.21,1.63s-.4,1.76-1.21,1.76h-4.43v8.68a3.43,3.43,0,0,1-.77,2.19,2.5,2.5,0,0,1-2,1h-1.64a1,1,0,0,1-.74-.2.94.94,0,0,1-.25-.73V72.07a1.77,1.77,0,0,0-1-1.72l-1.73-.93a.61.61,0,0,1-.36-.79c.1-.32.3-.48.56-.43l7.16.76c.4.05.65.18.69.37a2.26,2.26,0,0,1,.08.41v9.39Z" transform="translate(-12.49 -61.09)"/><path class="cls-1" d="M195.39,92.34a36.79,36.79,0,0,1-5.7.44h-8.45c-1.63,0-2.62-.46-3-1.36a7,7,0,0,1-.49-2.09V76a1.85,1.85,0,0,0-.71-1.69c-.49-.3-1-.62-1.45-1s-.68-.51-.58-.82a.75.75,0,0,1,.66-.46l6.74.77c.43.06.66.19.73.43s.1.33.1.35v15a1.67,1.67,0,0,0,.52,1.38,2,2,0,0,0,1.2.22h3.71c2.37,0,4.37,0,6-.18a8,8,0,0,0,4.47-2v-16a1.78,1.78,0,0,0-1.06-1.72l-1.73-.93c-.36-.2-.49-.46-.36-.79s.3-.48.56-.43l7,.76c.44.05.66.18.71.37a1.8,1.8,0,0,1,.09.41V81.67l4.42-.33c.79,0,1.2.52,1.23,1.67s-.4,1.75-1.23,1.75h-4.42V101a3.36,3.36,0,0,1-.8,2.18,2.34,2.34,0,0,1-1.94,1h-1.48a1.08,1.08,0,0,1-.75-.22,1,1,0,0,1-.22-.73V90.56A7.78,7.78,0,0,1,195.39,92.34Z" transform="translate(-12.49 -61.09)"/><path class="cls-1" d="M215.89,87.06a3.66,3.66,0,0,1-1.27-.12c-.12-.12-.3-.27-.5-.5l-1.25-1.64c-.21-.46-.21-.78,0-1s.54-.24.94,0a6.85,6.85,0,0,0,1.6.56,21.43,21.43,0,0,0,2.27.08h28.73c1.18,0,1.77.46,1.77,1.34s-.59,1.33-1.77,1.33h-13V91h8.73a.77.77,0,0,1,.6.18.81.81,0,0,1,.18.6v8.88a2.54,2.54,0,0,1-.8,1.94,3,3,0,0,1-2,.63H221.59a3.1,3.1,0,0,1-1.86-.64,2.31,2.31,0,0,1-.88-2v-5.7a2.89,2.89,0,0,0-.29-1.36,2.51,2.51,0,0,0-.73-.79,7.48,7.48,0,0,0-1-.55c-.34-.15-.52-.31-.52-.47a1.12,1.12,0,0,1,.09-.47c.08-.19.24-.27.51-.27h10.6V87.06ZM223.1,69.5a2.62,2.62,0,0,1,.41.14c.22.1.34.35.34.78v6c0,.74.11,1.17.39,1.36a3.47,3.47,0,0,0,1.57.23h16.57c1,0,1.53.45,1.53,1.34s-.52,1.3-1.58,1.3H222.07a7.74,7.74,0,0,1-2.65-.61c-.76-.35-1.18-1.34-1.23-3V72.39a1.44,1.44,0,0,0-1-1.36c-.7-.29-1.18-.5-1.49-.67s-.61-.47-.48-.77.33-.47.59-.44Zm1.74,31a1.55,1.55,0,0,0,1,.33h10a1.37,1.37,0,0,0,1-.38,1.24,1.24,0,0,0,.4-1V93.32H224.45v6.21A1.25,1.25,0,0,0,224.84,100.53Z" transform="translate(-12.49 -61.09)"/><path class="cls-1" d="M258.45,90.74a24.46,24.46,0,0,1-4,3.54c-.62.45-1.13.52-1.49.18s-.31-.77.14-1.34a29,29,0,0,0,4.73-8.49,32.55,32.55,0,0,0,2-9.07H257.1a2.08,2.08,0,0,1-1.15-.18,2.72,2.72,0,0,1-.59-.53L254,73c-.26-.44-.26-.74,0-.94a.86.86,0,0,1,.88,0,5.72,5.72,0,0,0,1.7.53,16.44,16.44,0,0,0,2.28.12h10.56a1.3,1.3,0,0,1,1.49,1.44c0,1-.51,1.42-1.49,1.42h-3.59a32.67,32.67,0,0,1-1.06,4.2,34.33,34.33,0,0,1-1.56,3.94,7.69,7.69,0,0,0,1.63,1.55c.76.58,1.34,1,1.77,1.3a6.77,6.77,0,0,0,1.55.75,2,2,0,0,1,1,.69,11,11,0,0,1,1.63,3c.41,1.11.38,1.88-.07,2.32a1.7,1.7,0,0,1-1.56.54,3.48,3.48,0,0,1-1.86-.77,20.26,20.26,0,0,1-3-3.2c-1.07-1.38-1.93-2.54-2.53-3.48A25.84,25.84,0,0,1,258.45,90.74Zm21.22-18.61a2.41,2.41,0,0,0-.49-1.71,6.61,6.61,0,0,0-1.25-.88c-.61-.36-.85-.7-.72-1a.64.64,0,0,1,.78-.35l5.59.76c.43.05.65.18.71.37a2.26,2.26,0,0,1,.08.41v31.35a3.23,3.23,0,0,1-.74,2.13,2.35,2.35,0,0,1-1.93.93h-1a1.05,1.05,0,0,1-.74-.22,1,1,0,0,1-.25-.73V84.49H277V100.7a3.33,3.33,0,0,1-.75,2.13,2.3,2.3,0,0,1-1.91.93h-1.07a1.16,1.16,0,0,1-.74-.22,1,1,0,0,1-.23-.72V72.48a2.18,2.18,0,0,0-.51-1.68,5.1,5.1,0,0,0-1.24-.85c-.53-.31-.77-.62-.73-1s.31-.5.81-.42l5.59.81c.4,0,.63.16.69.36a1.53,1.53,0,0,1,.09.41V81.51h2.68Z" transform="translate(-12.49 -61.09)"/><path class="cls-1" d="M312.66,87a40.22,40.22,0,0,1-6.67.51h-8.46c-1.64,0-2.61-.44-2.93-1.34a6.41,6.41,0,0,1-.5-2.09V75.69a2.85,2.85,0,0,0-.27-1.36,2.53,2.53,0,0,0-.69-.8c-.31-.21-.62-.37-.94-.55s-.47-.32-.47-.47a1.34,1.34,0,0,1,.1-.49.49.49,0,0,1,.47-.24h17.8c.95,0,1.44.42,1.46,1.27s-.48,1.27-1.46,1.27H299.53v9c.06.71.24,1.18.54,1.36a2.09,2.09,0,0,0,1.19.24H305a61.15,61.15,0,0,0,6.92-.27A8.68,8.68,0,0,0,316.58,83V72.07a1.79,1.79,0,0,0-1.06-1.72l-1.72-.93c-.35-.2-.49-.46-.35-.79s.3-.48.55-.43l7.26.76c.39.05.62.18.69.37a3.1,3.1,0,0,1,.07.41v6.71l4.41-.3c.82,0,1.23.51,1.24,1.66s-.41,1.75-1.24,1.75H322V90.85a3.59,3.59,0,0,1-.76,2.19,2.45,2.45,0,0,1-2,1h-1.72a1.13,1.13,0,0,1-.75-.19,1,1,0,0,1-.24-.73v-7.7A9.21,9.21,0,0,1,312.66,87Zm-8.28,4.08a2.7,2.7,0,0,1,.4.14c.22.07.34.35.34.75V98a3.47,3.47,0,0,0,.44,1.84c.26.37.91.56,1.93.56H321c1.07,0,1.61.4,1.61,1.25s-.54,1.29-1.61,1.29H303.45a5.79,5.79,0,0,1-2.47-.72c-.94-.46-1.41-1.43-1.41-2.9V93.76a1.42,1.42,0,0,0-1-1.39c-.68-.27-1.17-.5-1.49-.66s-.6-.47-.48-.78a.59.59,0,0,1,.6-.44Z" transform="translate(-12.49 -61.09)"/><path class="cls-2" d="M48.58,80.14c.19-.18.54,0,.54-.55-.54-.86-1.19.07-1.84-.1-.17-.45-.36.07-.55.1l.33.36c.53-.32,1,.17,1.52.19m4,1.82a.91.91,0,0,0-.86.27c-.61,0-1.55-.92-1.91.45.43,1.42,1.18,0,1.79.19.36.07.86.28,1.14-.19a.93.93,0,0,0-.16-.72m-3.33.62a.73.73,0,0,0-.16-.14c-.14-.14-.28-.26-.45-.22a9,9,0,0,0-3.7-.34c.57-.82,2-.26,2.68-.41s2.16.29,2.88-.47c0,0-.35-.28-.37-.28a.71.71,0,0,0-.59,0c-.12,0-.18.15-.33.19-1.34.27-2.67-.76-3.93-.48a8.31,8.31,0,0,1-2.77,0l.15-.14a1.41,1.41,0,0,0,1.55-.74l-.52-.13a.1.1,0,0,0,0-.07,1.65,1.65,0,0,0-1.13-.2,6.86,6.86,0,0,0-1.35-.19,2.37,2.37,0,0,0-1.31.29c-.33.19-.62.57-1,.67s-1.21-.56-.51-.64c-.16-.88-1.15-.47-1.65-.47H35.32a4.48,4.48,0,0,0-1.61-.22,3,3,0,0,0-.72.22H31.75l-.22-.2c-.49.5-1.06-.57-1.4.2h-.34c-.62,0-1.15-.44-1.76-.38s-1.26.45-1.89.53c-1.48.19-3,0-4.47.07a13.28,13.28,0,0,0-6.07,1.4c-.27.15-.5.68-.77.45-.53,1.21.54.46.71,1.21-.21.33-.35.07-.61.17-.32.56-.76,0-1.07.45a1.29,1.29,0,0,0-1.21-.36.44.44,0,0,0-.15.46c.13.62,1.29.43,1.62.56-.08.14-.12.38-.19.53.16.28.36.28.57.49a2.39,2.39,0,0,0,2.7.4,5.42,5.42,0,0,1,3-.14,20.93,20.93,0,0,0,3.87.2c.76,0,2.44-.59,3.14,0a.19.19,0,0,0-.06.19c.13.07.22-.21.32,0,.21-.59.72,0,.92-.56.1-.27,4-.29,4.45-.31a12.54,12.54,0,0,1,2.37-.1c1,.14,1.68.57,2.65.35a11.56,11.56,0,0,1,2.89-.52A11.46,11.46,0,0,0,44,84c1-.24,2.31-.11,3.2-.72.67-.47,1.38.57,2-.28.09-.25.47.17.43-.36a.36.36,0,0,1-.36-.1" transform="translate(-12.49 -61.09)"/><path class="cls-2" d="M54.19,91.2c.05.13.17.3.19.35-.1-.41-.22-.78-.28-1.18.26-.45-.36-.34,0-.86.93-1.45.51-3.71-.08-5.21-.67-1.69-.54-3.28-1-5.06-.15-.66-1.18-5.46-.57-5.57a1.13,1.13,0,0,0-.18,0c-.23-.84.16-1.79-.36-2.55a4.9,4.9,0,0,1-.42-1.65.41.41,0,0,1-.14-.38c.14-.83-1.08-2-1.5-2.63C48.67,64.62,47,61,44,61.38c0,0-1.11-.18-1.17-.22a9.55,9.55,0,0,0-1.14-.07c-.07,0-.1.16-.16.21-.47,0-.62.58-1.18.45-.32-.07-1.13.75-1.43.85l0,.16c-.17.12-.15.16-.17.4s-.41.4-.52.22c0,0-.37.11-.32.24l-.1,0c-.1.25-.36.09-.38.39a.93.93,0,0,1-.42.32c-.19.46-.53.3-.71.67,0,.25-.19.15-.28.45-.26,0-.17.36-.4.38s-.49.31-.54.6c0,0-.1.06-.13,0,0,.13-.22.21-.2.4-.21.56-.64.61-.88,1L34,68a37.28,37.28,0,0,1-2.56,3.53l-1.77,2.72c-.4.59-.94,1.9-1.54,2.29.06.31-.48.56-.13.74a11,11,0,0,0-.89,1.57c-.14.12-.07.3-.17.52-.31,0-.14.41-.37.49l-.22.36c0,.21-.26.35-.2.54-.11,0,0,.36-.24.28l-.07.34c-.46.11-.31.84-.67,1.27-.13.11-.38.27-.3.44-.14.1-.14.43-.34.33a16,16,0,0,1-1.71,3.2s-.07.74-.09.81c-.08.31-.43.4-.34.82-.09.25-.35.19-.37.39s-.28.57-.53.64v0c0,.06-.09.15,0,.16s0,.11,0,.18h.27l-.08.37c-.16,0-.08.15-.13.24s-.18.47-.35.36c-.1.12,0,.13,0,.2-.22,0-.1.47-.22.63a3.1,3.1,0,0,1-.18.83c-.12.28-.32.47-.46.73-.25.48-.38,1.56-.85,1.88a.56.56,0,0,1-.42.58c.07.12,0,.18,0,.3a1.1,1.1,0,0,1,.25,0c-.25-.07-1,2.79-1.14,3a5.29,5.29,0,0,0-.49,1.09c-.15.46-.19.87-.64,1.11.09.1.07.17.05.31,0,0,.23.11.25.18s-.21.27-.21.37a15.55,15.55,0,0,0-.56,3.42c0,.27,1.9,3.06,2.29,2.15.06-.17.27-.14.27-.35.3-.1.71-.68.85-.31l.11-.26c.45-.11.34-.7.66-1l.21,0c.14-.26.51-.51.45-.85l0,0c.06-.19.35-.36.22-.57l.29-.17c-.19-.23.3-.41.08-.67a4.24,4.24,0,0,0,.54-1.21c-.27-.06.11-.3.13-.45l-.1.06c.1-.25,0-.31-.13-.43l.2,0a8.94,8.94,0,0,1,.88-1s0,.07,0,.1c.35-.1.16-.29.37-.5l-.18-.12a.14.14,0,0,1,0-.21c-.35-.64.43-1.52.69-2.06a17,17,0,0,1,.6-1.87,5.53,5.53,0,0,1,.4-1.79A9,9,0,0,1,26,91.92c.11-.26.76-.9.7-1.07s.09-.09.11-.17c-.2-.12-.11-.38,0-.64.13-.08.19-.41.35-.37a1,1,0,0,0,.22-.51c.22,0,.18-.22.35-.34a.77.77,0,0,0,0-.52c0-.52.42-.09.5-.55-.08-.07,0-.27.13-.4,0-.49.43-.87.61-1.3.23-1,1.17-2,1.64-3,.37-.72.73-1.44,1.12-2.12.26-.4,1.09-1.23,1-1.73.23-.13.27-.42.4-.58.47-.16.17-.82.6-.79,0-.18.36-.33.27-.51.2-.17.52-.26.55-.52.54-.41.59-.93,1-1.37.38-.06.08-.6.48-.53v0l.25-.13c0-.39.38-.39.49-.62.36-.7,1-1,1.4-1.74.67-.06,1-1,1.65-1.29,0,0,.55-.75.68-.87a4.17,4.17,0,0,1,1-.66c0,.14.4-.3.4-.11.39-.06.71-.11,1,.16.25-.42,1.89,1.64,2,1.83s1.3,2.4.47,1.76A5.31,5.31,0,0,1,45.43,75c-.06,1.11-.3,1.57.3,2.64A4.71,4.71,0,0,1,46.27,79c0,.07.13,0,.2,0s0,.3-.08.45c0-.2.45.46.47.52a.26.26,0,0,0,.19-.09c0,.22.22.24.2.47,0,.88.28.85.67,1.61-.26-.1,0,.28-.1,0,.36,1,1,2.1,1.36,3.07a8.89,8.89,0,0,0,1.93,2.71c1.53,1.3,1.78,3.37,2.91,4.93-.14-.2-.07-.6-.26-.81.07-.15.13-.06.22-.07l.05-.21.25.5a2.19,2.19,0,0,1-.09-.92" transform="translate(-12.49 -61.09)"/><path class="cls-3" d="M31,95.57l-1,0c-.4,0-.57.06-.67.2a1,1,0,0,0-.13.25s0,.09-.08.09S29,96.1,29,96s.15-.75.16-.8,0-.14.09-.14a1.21,1.21,0,0,0,.3.09c.19,0,.46,0,.7,0H33a4.27,4.27,0,0,0,.48,0l.19,0c.05,0,.06,0,.06.14s0,.64,0,.82,0,.11-.06.11-.07,0-.08-.14V96c0-.19-.2-.39-.81-.4l-.89,0v2.87c0,.66,0,1.21,0,1.51s.06.36.28.38l.35,0c.09,0,.12,0,.12.06s-.07.07-.15.07l-1.08,0-.9,0c-.08,0-.13,0-.13-.07s0-.06.11-.06a1.19,1.19,0,0,0,.24,0c.16,0,.18-.17.21-.38s0-.85,0-1.51Z" transform="translate(-12.49 -61.09)"/><path class="cls-3" d="M38.07,97.92a0,0,0,0,0,0,0v-.13c0-.9,0-1.11,0-1.31s-.06-.25-.25-.32l-.24,0c-.08,0-.1,0-.1-.07s0,0,.13,0l.92,0,.79,0c.09,0,.14,0,.14,0s0,.07-.12.07l-.19,0c-.14,0-.21.12-.21.32s0,.36,0,1.26v1.07c0,.55,0,1,0,1.27s.07.28.26.31l.31,0c.07,0,.09,0,.09.07s0,.06-.12.06l-1,0-.8,0c-.09,0-.14,0-.14-.06s0-.07.09-.07l.24,0c.12,0,.16-.14.18-.32s0-.71,0-1.25v-.46a.07.07,0,0,0,0,0H35.74s-.05,0-.05,0v.46c0,.54,0,1,0,1.26s.06.28.24.31l.32,0c.07,0,.1,0,.1.07s-.07.06-.15.06l-1,0-.79,0q-.12,0-.12-.06c0-.05,0-.07.1-.07l.22,0c.12,0,.15-.14.18-.32s0-.71,0-1.26V97.69c0-.9,0-1.06,0-1.26s-.07-.25-.27-.32l-.24,0c-.07,0-.11,0-.11-.07s0,0,.14,0l.89,0,.83,0c.08,0,.12,0,.12,0s0,.07-.1.07l-.18,0c-.17,0-.23.12-.24.32s0,.41,0,1.31v.13s0,0,.05,0Z" transform="translate(-12.49 -61.09)"/><path class="cls-3" d="M41,97.69V96.43a.33.33,0,0,0-.27-.32l-.26,0c-.06,0-.09,0-.09-.07s0,0,.14,0l.88,0c.2,0,1.58,0,1.68,0l.26,0c.06,0,.09,0,.11,0s.05,0,.05.06a2,2,0,0,0-.05.38,2.58,2.58,0,0,1,0,.4s0,.1-.07.1,0,0,0-.07a.51.51,0,0,0,0-.23c-.05-.1-.11-.19-.41-.23l-1,0s0,0,0,.06v1.48s0,.06,0,.06H42.9c.15,0,.25,0,.3-.09s.07-.08.09-.08a.06.06,0,0,1,.06.06s0,.14-.06.44c0,.12,0,.35,0,.4s0,.13-.07.13a0,0,0,0,1-.05,0,1.77,1.77,0,0,0,0-.23.38.38,0,0,0-.35-.24l-1,0s0,0,0,.07v1.35c0,.42.2.51.83.51a1.33,1.33,0,0,0,.59-.09c.16,0,.21-.18.26-.43,0-.07,0-.1.08-.1s.05.07.05.15a4.44,4.44,0,0,1-.08.65c0,.16-.1.16-.33.16q-.69,0-1.14,0H41l-.42,0c-.08,0-.13,0-.13-.06s0-.07.11-.07l.21,0c.13,0,.17-.14.18-.32s0-.71,0-1.26Z" transform="translate(-12.49 -61.09)"/><path class="cls-3" d="M47.53,98.65s-.05,0-.06.07l-.39,1a1.41,1.41,0,0,0-.11.43c0,.13.08.22.28.22h.11c.09,0,.11,0,.11.06s0,.07-.13.07l-.73,0-.84,0c-.09,0-.13,0-.13-.07s0-.06.09-.06l.22,0c.31,0,.45-.27.59-.63L48.3,95.3c.09-.2.12-.27.2-.27s.11,0,.17.21c.18.39,1.3,3.26,1.75,4.33.26.63.46.73.61.76l.3,0c.06,0,.09,0,.09.06s-.08.07-.33.07-.76,0-1.32,0c-.13,0-.22,0-.22,0s0-.06.11-.07a.11.11,0,0,0,.06-.16l-.56-1.48a.07.07,0,0,0-.06-.06ZM49,98.31s0,0,0-.06l-.63-1.72s0-.07,0-.07,0,0,0,.07l-.63,1.72a0,0,0,0,0,0,.06Z" transform="translate(-12.49 -61.09)"/><path class="cls-3" d="M51.6,100.41c-.1,0-.12-.07-.12-.2,0-.32,0-.7,0-.81s0-.15.08-.15.06.06.06.1a2,2,0,0,0,.05.31,1,1,0,0,0,1,.59.77.77,0,0,0,.86-.75c0-.26-.07-.52-.61-.85l-.36-.21c-.73-.42-1-.82-1-1.36,0-.72.69-1.19,1.56-1.19a3.67,3.67,0,0,1,.87.1c.07,0,.09,0,.09.07s0,.25,0,.73c0,.11,0,.18-.07.18s-.07,0-.07-.11a.68.68,0,0,0-.17-.39.82.82,0,0,0-.68-.28c-.44,0-.85.23-.85.63s.11.49.67.8l.24.14c.82.45,1.07.9,1.07,1.44a1.25,1.25,0,0,1-.61,1.11,1.83,1.83,0,0,1-1,.25A2.94,2.94,0,0,1,51.6,100.41Z" transform="translate(-12.49 -61.09)"/><path class="cls-3" d="M56,99s0,0-.06,0l-.32.8a.75.75,0,0,0-.09.36c0,.11,0,.17.23.17h.1c.08,0,.09,0,.09.07s0,.06-.1.06l-.68,0-.72,0q-.12,0-.12-.06a.06.06,0,0,1,.07-.07h.19c.28,0,.39-.22.51-.52l1.62-3.76c.06-.17.11-.24.18-.24s.12.06.18.19c.15.33,1.19,2.77,1.57,3.68.24.54.41.61.53.64l.24,0s.07,0,.07.07,0,.06-.26.06-.66,0-1.18,0c-.12,0-.19,0-.19,0s0-.06.07-.07a.09.09,0,0,0,.06-.14L57.51,99a0,0,0,0,0,0,0Zm1.32-.33s0,0,0,0l-.59-1.51a.12.12,0,0,0,0,0s0,0,0,0l-.6,1.51s0,0,0,0Z" transform="translate(-12.49 -61.09)"/><path class="cls-3" d="M60.55,99.68c0,.46.09.59.22.63a.89.89,0,0,0,.32,0c.07,0,.1,0,.1.07s-.06.06-.13.06c-.41,0-.69,0-.82,0l-.65,0c-.1,0-.14,0-.14-.06s0-.07.09-.07a1.27,1.27,0,0,0,.28,0c.17,0,.19-.2.19-.72l.07-3.54c0-.12,0-.21.1-.21s.15.1.26.2,1,1,1.91,1.89c.41.43,1.23,1.27,1.33,1.36h0l-.05-2.66c0-.37-.08-.47-.21-.52a.94.94,0,0,0-.32,0c-.09,0-.1,0-.1-.07s0,0,.15,0L64,96l.6,0c.1,0,.15,0,.15,0s0,.07-.1.07a.62.62,0,0,0-.19,0c-.18,0-.22.15-.24.5l-.06,3.76c0,.13,0,.18-.1.18a.44.44,0,0,1-.25-.11L62,98.72c-.67-.65-1.33-1.38-1.45-1.48h0Z" transform="translate(-12.49 -61.09)"/><path class="cls-3" d="M68.7,99.53c0,.54.12.73.26.78a1.12,1.12,0,0,0,.36,0c.08,0,.12,0,.12.06s-.06.07-.16.07c-.45,0-.74,0-.88,0l-.75,0c-.09,0-.15,0-.15-.07s0-.06.11-.06a1.71,1.71,0,0,0,.31,0c.18-.06.21-.26.22-.87l.07-4.17c0-.13,0-.22.09-.22s.14.09.26.2,1.15,1.25,2.18,2.26l1.54,1.6h0L72.24,96c0-.43-.07-.57-.22-.64a1.36,1.36,0,0,0-.39,0c-.08,0-.12,0-.12-.06s.09-.06.2-.06l.85,0c.07,0,.34,0,.69,0,.08,0,.15,0,.15.06s0,.06-.13.06a.71.71,0,0,0-.2,0c-.21.06-.26.22-.26.6l-.08,4.43c0,.15,0,.22-.1.22s-.16-.08-.24-.15c-.43-.42-1.33-1.34-2.06-2.06s-1.54-1.64-1.68-1.78h0Z" transform="translate(-12.49 -61.09)"/><path class="cls-3" d="M75.09,99s0,0,0,0l-.34.8a1,1,0,0,0-.08.36c0,.11,0,.17.25.17H75c.06,0,.08,0,.08.07s0,.06-.09.06l-.7,0-.7,0c-.09,0-.12,0-.12-.06s0-.07.06-.07h.2c.26,0,.37-.22.5-.52l1.62-3.76c.07-.17.12-.24.18-.24s.11.06.18.19c.15.33,1.19,2.77,1.57,3.68.24.54.41.61.52.64l.24,0c.07,0,.09,0,.09.07s0,.06-.26.06-.68,0-1.19,0c-.12,0-.19,0-.19,0s0-.06.08-.07.08-.06,0-.14L76.61,99s0,0-.07,0Zm1.32-.33s0,0,0,0l-.58-1.51s0,0,0,0,0,0,0,0l-.59,1.51s0,0,0,0Z" transform="translate(-12.49 -61.09)"/><path class="cls-3" d="M79.65,99.68c0,.46.08.59.21.63a.87.87,0,0,0,.31,0c.09,0,.11,0,.11.07s0,.06-.14.06l-.79,0-.67,0c-.08,0-.14,0-.14-.06s0-.07.09-.07a1.27,1.27,0,0,0,.28,0c.16,0,.18-.2.2-.72l0-3.54c0-.12,0-.21.1-.21s.16.1.28.2,1,1,1.9,1.89c.41.43,1.24,1.27,1.33,1.36h0l-.06-2.66c0-.37-.06-.47-.22-.52a.85.85,0,0,0-.32,0c-.07,0-.1,0-.1-.07s.07,0,.15,0L83,96l.61,0c.08,0,.14,0,.14,0s0,.07-.11.07a.62.62,0,0,0-.18,0c-.17,0-.22.15-.24.5l-.06,3.76c0,.13,0,.18-.09.18a.42.42,0,0,1-.26-.11c-.39-.37-1.17-1.1-1.8-1.72s-1.32-1.38-1.45-1.48h0Z" transform="translate(-12.49 -61.09)"/><path class="cls-3" d="M84.9,97.69a10.66,10.66,0,0,0,0-1.26c0-.2-.07-.25-.26-.32l-.24,0c-.07,0-.11,0-.11-.07s0,0,.14,0l.92,0,.8,0c.09,0,.14,0,.14,0s0,.07-.1.07l-.19,0c-.15,0-.2.12-.23.32s0,.36,0,1.26v.84c0,.87.18,1.21.48,1.44a1.13,1.13,0,0,0,.77.25,1.14,1.14,0,0,0,.82-.32,1.89,1.89,0,0,0,.37-1.46v-.75c0-.9,0-1.06,0-1.26s0-.25-.25-.32l-.22,0c-.08,0-.12,0-.12-.07s.05,0,.14,0l.72,0,.73,0c.1,0,.13,0,.13,0s0,.07-.09.07l-.2,0c-.18,0-.2.12-.22.32s0,.36,0,1.26v.66a2.19,2.19,0,0,1-.61,1.79,1.88,1.88,0,0,1-1.29.42,2.17,2.17,0,0,1-1.42-.4,2,2,0,0,1-.55-1.59Z" transform="translate(-12.49 -61.09)"/><path class="cls-3" d="M90.61,96c0-.11.07-.16.13-.16s.1,0,.19.18l1.65,3.33L94.24,96c.05-.1.1-.15.16-.15s.12.06.14.18l.56,3.69c.07.38.11.54.31.6a1.64,1.64,0,0,0,.35,0c.06,0,.09,0,.09.06s-.07.07-.15.07-1,0-1.28,0-.19,0-.19-.07,0,0,.07-.06,0-.09,0-.26L94,97.47h0l-1.34,2.67c-.12.29-.17.33-.23.33s-.16-.11-.25-.29-.65-1.19-.71-1.36S91,98,90.83,97.55h0l-.28,2.33a1.2,1.2,0,0,0,0,.28c0,.11.09.15.19.17l.21,0c.07,0,.11,0,.11.06s0,.07-.15.07l-.65,0-.62,0s-.1,0-.1-.07,0-.06.09-.06a.72.72,0,0,0,.19,0c.17,0,.24-.25.25-.45Z" transform="translate(-12.49 -61.09)"/><path class="cls-3" d="M30.92,106.88c0,.66,0,1.19,0,1.5s.05.35.26.38l.35,0c.09,0,.12,0,.12,0s-.05.07-.15.07c-.44,0-.87,0-1.06,0l-.9,0c-.09,0-.15,0-.15-.07s0,0,.11,0a1.43,1.43,0,0,0,.26,0c.13,0,.17-.18.2-.38s0-.84,0-1.5v-1.25c0-1.07,0-1.26,0-1.48s-.06-.35-.3-.4a.66.66,0,0,0-.26,0c-.08,0-.13,0-.13,0s.06-.07.17-.07H30a4,4,0,0,0,.44,0h1.86l.28,0a.24.24,0,0,1,.12,0s.06,0,.06,0,0,.14-.07.33,0,.48,0,.57,0,.09-.08.09-.07,0-.07-.11a.68.68,0,0,0,0-.27c0-.1-.19-.21-.46-.21L31,104s0,0,0,.1v1.75s0,.06,0,.06h1.22a.37.37,0,0,0,.3-.13s.06-.07.08-.07a.07.07,0,0,1,.07.06c0,.05,0,.22-.07.44s0,.47,0,.51,0,.14-.08.14-.05,0-.05-.1a1.31,1.31,0,0,0,0-.22.4.4,0,0,0-.36-.25H31s0,0,0,.06Z" transform="translate(-12.49 -61.09)"/><path class="cls-3" d="M33.58,106.65a2.36,2.36,0,0,1,2.59-2.35,2.23,2.23,0,0,1,2.52,2.24A2.42,2.42,0,0,1,36.1,109,2.32,2.32,0,0,1,33.58,106.65Zm4.19.11A1.89,1.89,0,0,0,36,104.63c-.69,0-1.5.36-1.5,1.84a2,2,0,0,0,1.87,2.19C36.79,108.66,37.77,108.46,37.77,106.76Z" transform="translate(-12.49 -61.09)"/><path class="cls-3" d="M39.78,106.12a12.31,12.31,0,0,0,0-1.26c0-.21-.06-.27-.26-.32a.75.75,0,0,0-.23,0c-.07,0-.12,0-.12-.07s.05,0,.14,0l.92,0,.8,0c.1,0,.15,0,.15,0s-.05.07-.11.07a.63.63,0,0,0-.19,0c-.15,0-.2.11-.22.32s0,.36,0,1.26V107c0,.87.16,1.2.46,1.45a1.22,1.22,0,0,0,.78.23,1.18,1.18,0,0,0,.84-.31,2,2,0,0,0,.35-1.45v-.76c0-.9,0-1.06,0-1.26s0-.27-.25-.32a.83.83,0,0,0-.22,0c-.08,0-.1,0-.1-.07s0,0,.11,0l.74,0,.73,0c.08,0,.11,0,.11,0s0,.07-.1.07a.61.61,0,0,0-.17,0c-.18,0-.21.11-.23.32v1.9a2.18,2.18,0,0,1-.6,1.79,2,2,0,0,1-1.31.44,2.13,2.13,0,0,1-1.41-.41,1.9,1.9,0,0,1-.57-1.58Z" transform="translate(-12.49 -61.09)"/><path class="cls-3" d="M45.64,108.1c0,.45.09.61.2.63a.78.78,0,0,0,.32.06c.07,0,.11,0,.11.06s-.06.06-.14.06c-.4,0-.68,0-.8,0s-.35,0-.67,0c-.08,0-.13,0-.13-.06s0-.06.09-.06a1.43,1.43,0,0,0,.29,0c.15-.05.17-.21.19-.73l0-3.53c0-.13,0-.22.1-.22s.17.11.27.21,1,1,1.91,1.89c.42.42,1.24,1.27,1.33,1.35h0l-.06-2.65c0-.37-.06-.47-.21-.53a.91.91,0,0,0-.32,0c-.08,0-.1,0-.1-.07s.07,0,.17,0l.77,0c.07,0,.3,0,.61,0,.08,0,.13,0,.13,0s0,.07-.1.07a.42.42,0,0,0-.19,0c-.16,0-.21.15-.23.48l-.07,3.77c0,.13,0,.19-.08.19a.38.38,0,0,1-.26-.13c-.39-.35-1.17-1.09-1.81-1.72s-1.33-1.36-1.44-1.47h0Z" transform="translate(-12.49 -61.09)"/><path class="cls-3" d="M51.15,106.12c0-.9,0-1.06,0-1.26s-.05-.27-.25-.32a.81.81,0,0,0-.25,0c-.07,0-.11,0-.11-.07s.06,0,.15,0l.88,0,1,0a3.29,3.29,0,0,1,2.48.69,2,2,0,0,1,.61,1.51,2.37,2.37,0,0,1-.69,1.67,2.86,2.86,0,0,1-2.06.71c-.23,0-.5,0-.74,0l-.62,0-.35,0h-.44c-.07,0-.11,0-.11-.06s0-.06.1-.06a.62.62,0,0,0,.21,0c.13,0,.15-.14.18-.31s0-.72,0-1.27Zm.83.66V108c0,.15,0,.36.08.42s.33.23.81.23a1.93,1.93,0,0,0,1.35-.4,1.86,1.86,0,0,0,.53-1.48,1.94,1.94,0,0,0-.59-1.49,2.47,2.47,0,0,0-1.73-.57,1.49,1.49,0,0,0-.37,0c-.06,0-.08,0-.08.12v1.91Z" transform="translate(-12.49 -61.09)"/><path class="cls-3" d="M57.25,107.4s0,0,0,.06l-.34.79a1,1,0,0,0-.09.36c0,.12.06.18.25.18h.08c.08,0,.11,0,.11.06s0,.06-.12.06l-.67,0c-.08,0-.4,0-.73,0-.07,0-.11,0-.11-.06a.07.07,0,0,1,.07-.06h.19c.28,0,.38-.23.5-.53L58,104.5c.08-.17.12-.25.19-.25s.12,0,.17.19c.16.33,1.18,2.78,1.57,3.68.25.54.43.61.54.64a1,1,0,0,0,.23,0c.06,0,.09,0,.09.06s0,.06-.27.06h-1.2c-.1,0-.17,0-.17-.05s0-.06.08-.06.07-.06.06-.15l-.47-1.18a.09.09,0,0,0-.08-.06Zm1.32-.32s0,0,0,0L58,105.53s0-.06,0-.06,0,0,0,.06l-.6,1.51s0,0,0,0Z" transform="translate(-12.49 -61.09)"/><path class="cls-3" d="M61.78,104.76l-.92,0c-.36,0-.5,0-.59.18a.5.5,0,0,0-.1.22s0,.07-.07.07-.07,0-.07-.1a5.38,5.38,0,0,1,.15-.74c0-.06,0-.11.06-.11s.1.06.26.09l.62,0h2.5l.42,0,.18,0s0,0,0,.13,0,.58,0,.72,0,.1-.06.1-.07,0-.07-.12v-.06c0-.16-.18-.34-.74-.35h-.78v2.42c0,.55,0,1,0,1.27s.05.28.25.31a1.43,1.43,0,0,0,.29,0c.09,0,.11,0,.11.06s0,.06-.12.06c-.41,0-.82,0-1,0l-.8,0c-.08,0-.12,0-.12-.06s0-.06.09-.06a.65.65,0,0,0,.22,0c.13,0,.16-.14.19-.31s0-.72,0-1.27Z" transform="translate(-12.49 -61.09)"/><path class="cls-3" d="M65.41,106.12c0-.9,0-1.06,0-1.26s-.08-.27-.21-.31a.56.56,0,0,0-.23,0c-.07,0-.09,0-.09-.07s0,0,.14,0l.84,0,.78,0c.09,0,.12,0,.12,0s0,.07-.1.07l-.18,0c-.17,0-.21.11-.21.32a9.4,9.4,0,0,0,0,1.26v1.06c0,.57,0,1.06,0,1.3s.06.25.25.28a1.55,1.55,0,0,0,.31,0c.07,0,.11,0,.11.06s-.06.06-.13.06c-.41,0-.82,0-1,0l-.81,0c-.07,0-.11,0-.11-.06s0-.06.1-.06a.58.58,0,0,0,.21,0c.13,0,.16-.12.19-.28s0-.73,0-1.3Z" transform="translate(-12.49 -61.09)"/><path class="cls-3" d="M67.52,106.65a2.36,2.36,0,0,1,2.59-2.35,2.23,2.23,0,0,1,2.52,2.24A2.41,2.41,0,0,1,70.05,109,2.33,2.33,0,0,1,67.52,106.65Zm4.2.11a1.89,1.89,0,0,0-1.79-2.13c-.69,0-1.49.36-1.49,1.84a1.94,1.94,0,0,0,1.86,2.19C70.74,108.66,71.72,108.46,71.72,106.76Z" transform="translate(-12.49 -61.09)"/><path class="cls-3" d="M74.16,108.1c0,.45.1.61.22.63a.75.75,0,0,0,.32.06c.07,0,.12,0,.12.06s-.06.06-.15.06c-.41,0-.68,0-.8,0s-.36,0-.66,0c-.1,0-.16,0-.16-.06s.06-.06.11-.06a1.27,1.27,0,0,0,.28,0c.16-.05.18-.21.2-.73l0-3.53c0-.13,0-.22.1-.22s.16.11.26.21,1,1,1.91,1.89c.42.42,1.24,1.27,1.33,1.35h0l-.08-2.65c0-.37-.06-.47-.2-.53a1,1,0,0,0-.33,0c-.09,0-.11,0-.11-.07s.08,0,.15,0l.81,0c.06,0,.28,0,.59,0,.09,0,.14,0,.14,0s0,.07-.11.07a.36.36,0,0,0-.17,0c-.18,0-.22.15-.23.48l-.07,3.77c0,.13,0,.19-.1.19a.36.36,0,0,1-.26-.13c-.38-.35-1.15-1.09-1.8-1.72s-1.33-1.36-1.45-1.47h0Z" transform="translate(-12.49 -61.09)"/></svg>