<svg id="Layer_1" data-name="Layer 1" xmlns="http://www.w3.org/2000/svg" viewBox="0 0 314.31 44.18"><defs><style>.cls-1{fill:#53bc79;}</style></defs><title>banksalad</title><path class="cls-1" d="M56.72,60.46a.83.83,0,0,0-.2-.41.79.79,0,0,0-.22-.19.61.61,0,0,0-.14-.07,7.9,7.9,0,0,0-2.57-.28H53c-1.13,0-13.39,0-17.07.62-.91.08-1.81.2-2.7.35-5,.84-9.49,2.73-12.59,5.84l-.32.34-.13.12-.24.26-.07.09A22.74,22.74,0,0,0,14.41,79c-.17.91-.29,1.84-.38,2.78-.7,3.77-.63,16.47-.67,17.63v0a12.85,12.85,0,0,0,.12,2.63.92.92,0,0,0,.19.41.79.79,0,0,0,.22.19l.14.07a8,8,0,0,0,2.58.28h.61c1.12,0,13.39,0,17.07-.62.91-.08,1.81-.2,2.69-.35,5-.84,9.49-2.73,12.59-5.84l.33-.34.13-.12c.08-.09.15-.18.23-.26l.08-.09a22.81,22.81,0,0,0,5.45-11.87c.16-.91.28-1.84.37-2.78.7-3.77.63-16.47.67-17.63,0,0,0,0,0,0A13.6,13.6,0,0,0,56.72,60.46ZM48.83,79.37q-.06.33-.09.66-.1,1.13-.3,2.19a15.53,15.53,0,0,1-3.52,8l-.25.27-.18.17-.22.24c-1.77,1.77-4.81,3.11-8.54,3.74-.66.11-1.38.2-2.11.27-.21,0-.43,0-.64.08-1,.18-3.95.4-12.12.48.08-8.34.32-11.34.51-12.36q.06-.33.09-.66c.07-.74.17-1.48.29-2.19a15.62,15.62,0,0,1,3.53-8c0-.05.25-.26.25-.27l.17-.17.22-.24c1.77-1.77,4.81-3.11,8.54-3.74.67-.11,1.38-.2,2.11-.27.22,0,.43,0,.65-.08,1-.18,3.94-.4,12.12-.48C49.25,75.35,49,78.35,48.83,79.37Z" transform="translate(-13.35 -59.51)"/><path class="cls-1" d="M212.09,85.58c-3.91-1.49-5.72-2.61-5.72-5.09,0-2.24,2-3.24,5.21-3.24a16.84,16.84,0,0,1,7.24,2.2V74.61a14.48,14.48,0,0,0-7.29-2.32c-6.46,0-10.37,4-10.37,8.82,0,3.6,1.67,6.74,7.08,8.66,4,1.49,5.6,2.21,5.87,4.81s-1.49,3.89-5.47,3.89a19.33,19.33,0,0,1-8.36-2.39v5.52a17.14,17.14,0,0,0,8.44,2.05c7.15,0,11.25-3.72,11.25-9C220,90.18,217.31,87.57,212.09,85.58Z" transform="translate(-13.35 -59.51)"/><polygon class="cls-1" points="243.81 43.52 249.72 43.51 249.72 0.17 243.81 0.17 243.81 43.52"/><polygon class="cls-1" points="183.94 43.66 166.4 28.07 182.79 13.05 174.92 13.05 161.28 24.97 161.28 0.42 155.46 0.42 155.46 43.5 161.28 43.49 161.28 30.86 175.84 43.66 183.94 43.66"/><path class="cls-1" d="M150.48,72.29A13.7,13.7,0,0,0,136.78,86v17h5.91V85.74a7.8,7.8,0,0,1,15.59,0V103h5.9V86A13.7,13.7,0,0,0,150.48,72.29Z" transform="translate(-13.35 -59.51)"/><path class="cls-1" d="M72.13,100.92c4.37,3.5,20.61,5.64,25.88-6s-2-22.4-10.65-22.4A14.41,14.41,0,0,0,78,75.9v-16H72.13ZM93,92.6c-2.84,6.49-10.64,6.45-15,4.88V82.6s2.73-4.79,8.23-4.79S96.33,84.91,93,92.6Z" transform="translate(-13.35 -59.51)"/><path class="cls-1" d="M131.24,76.71l-.05-.2a18,18,0,0,0-14.89-4c-8.29,1.31-11.13,6.28-12.54,11.7-1.22,4.64-1,16.47,10.29,18.66,5.06,1,9.09.07,10.54-1.19v1.46h6.8V76.71Zm-15.6,21c-7.09-1.43-7.24-9-6.48-12,.89-3.53,2.43-6.78,7.65-7.63a10,10,0,0,1,7.78,1.6V96S122.56,99.06,115.64,97.66Z" transform="translate(-13.35 -59.51)"/><path class="cls-1" d="M251.39,76.71v-.2a17.92,17.92,0,0,0-14.83-4c-8.29,1.31-11.09,6.28-12.51,11.7-1.21,4.64-.63,16.47,10.63,18.66a16.38,16.38,0,0,0,10.88-1.19v1.46h5.83V76.71Zm-15.1,21c-7.09-1.43-7.41-9-6.64-12,.89-3.53,2.67-6.78,7.89-7.63a11.28,11.28,0,0,1,8,1.6V96S243.2,99.06,236.29,97.66Z" transform="translate(-13.35 -59.51)"/><path class="cls-1" d="M296.08,76.71v-.2a17.92,17.92,0,0,0-14.83-4c-8.29,1.31-11.09,6.28-12.51,11.7-1.21,4.64-.63,16.47,10.63,18.66a16.37,16.37,0,0,0,10.88-1.19v1.46h5.83V76.71Zm-15.1,21c-7.09-1.43-7.41-9-6.64-12,.89-3.53,2.67-6.78,7.89-7.63a11.28,11.28,0,0,1,8,1.6V96S287.89,99.06,281,97.66Z" transform="translate(-13.35 -59.51)"/><path class="cls-1" d="M321.83,59.93v13.4a18.4,18.4,0,0,0-7-.14c-8.29,1.3-11.45,6.28-12.86,11.7-1.22,4.63-.42,16.17,10.81,18.49a19.66,19.66,0,0,0,4.4.28h0c4.63,0,8.25-1,10.45-2.45V59.93ZM314.56,98.3c-7.1-1.42-7.75-9-7-12,.89-3.53,3-6.78,8.18-7.63,2.64-.43,3.64,0,6.07.59V97.89C320.37,98.53,318.19,99,314.56,98.3Z" transform="translate(-13.35 -59.51)"/></svg>