<svg id="Layer_1" data-name="Layer 1" xmlns="http://www.w3.org/2000/svg" viewBox="0 0 297.64 78.78"><defs><style>.cls-1{fill:#ed1c24;}</style></defs><title>bunjang</title><g id="Page-1"><g id="logo"><path id="Combined-Shape" class="cls-1" d="M88.51,63.59,58.25,46.21a5.27,5.27,0,0,0-4.71,0l-30,17.38a5.1,5.1,0,0,0-2.26,4v34.8a5.07,5.07,0,0,0,2.24,4l30.08,17.39a5.15,5.15,0,0,0,4.65,0l30.3-17.39a5.32,5.32,0,0,0,2.49-4V67.64A5.38,5.38,0,0,0,88.51,63.59ZM70.73,84.09l-21.14,23.5a1.16,1.16,0,0,1-1.46.24,1.21,1.21,0,0,1-.53-1.4l4.81-14.94H44A1.15,1.15,0,0,1,42.91,90L49.37,66.4a1.32,1.32,0,0,1,1.13-1H65.77a1.31,1.31,0,0,1,1,.67,1.29,1.29,0,0,1,.1,1.16L60.49,82.11h9.44a1.17,1.17,0,0,1,1,.7,1.19,1.19,0,0,1-.17,1.25ZM246,89c8.69,0,15.75,5.78,15.75,12.75S254.61,114.6,246,114.6s-15.57-5.9-15.57-12.81S237.57,89,246,89Zm0,19v0c4.28,0,7.65-2.76,7.65-6.25s-3.5-6.21-7.65-6.21-7.53,2.75-7.53,6.21S241.87,108.06,246,108.06ZM139.4,77.63V88.94H112.46V59.27H120v9.17h11.86V59.27h7.51V71.15h9.74V56.6h7.57V97.1h-7.55V77.63Zm-7.55,4.85,0-7.63H120v7.63Zm31.27-14.55v-7h22.56V73.68a29.54,29.54,0,0,1-.68,6.95,15.91,15.91,0,0,1-2.78,5.84,32.29,32.29,0,0,1-5.84,5.84c-2.53,2-5.92,4.36-10,7.09l-4.56-5.84c3.59-2.22,6.51-4.21,8.65-5.84A25.34,25.34,0,0,0,175.35,83a12.22,12.22,0,0,0,2.23-4.65,26.43,26.43,0,0,0,.63-5.74V67.93Zm71,10.52A6.88,6.88,0,0,1,232.74,80a42,42,0,0,1-3.42,2.82c-1.31,1-2.69,2.1-4.07,3.13s-2.88,2.09-4.44,3.14l-4.67-5.69c2-1.22,3.87-2.57,5.62-3.89s3.35-2.57,4.66-3.7A11,11,0,0,0,229,72.7a8.63,8.63,0,0,0,1-3.89V65.73H218.65V59.27h29.71v6.5H237.57v3.12a13,13,0,0,0,.25,2,5.72,5.72,0,0,0,.72,1.73,9.44,9.44,0,0,0,1.23,1.65A13,13,0,0,0,241.72,76c1.32,1,2.74,1.94,4.22,3s3,2,4.6,3l-4.25,5.51c-2.78-1.77-5.35-3.5-7.65-5.16-1.22-.91-2.39-1.73-3.17-2.39A5.73,5.73,0,0,1,234.13,78.45Zm70.42,12.44.17,0,.82,6.42c-1.44.24-3.08.45-4.79.59s-3.48.27-5.43.35-3.89.19-5.84.21-3.9.16-5.84.16H273.08V60.92h27.55v6.47H281.16v9.17h17.26V83H281.16v9.15h4.33c3,0,6.17-.21,9.56-.35S301.63,91.28,304.55,90.89ZM129.71,93.26v13.48H157.2v6.46H121.08V93.26Zm73.85-36.33V56.6h8.08v52.18l-8.08,1.93V80.86h-4.85v27.92l-8.1,1.93V56.6h8.1V73.85h4.85Zm106.71-.33h8.63v52.05l-8.63,2.06V83.55h-9.69v-7h9.69v-20Zm-48,0V70.08h7.55v6.48H262.3V88.94h-8.63V56.6Z" transform="translate(-21.26 -45.65)"/></g></g></svg>