<svg id="Layer_1" data-name="Layer 1" xmlns="http://www.w3.org/2000/svg" viewBox="0 0 311.81 106.88"><defs><style>.cls-1{fill:#fff;}.cls-2{fill:#fed10a;}.cls-3{fill:#24bbb1;}.cls-4{fill:#ef5098;}.cls-5{fill:#17a8e0;}.cls-6{fill:#93c83e;}.cls-7{fill:#0779a1;}.cls-8{fill:#231f20;}</style></defs><title>elastic</title><path class="cls-1" d="M121.47,87.6a21.12,21.12,0,0,0-14-19.92,29.76,29.76,0,0,0,.57-5.76A30.31,30.31,0,0,0,53.19,44.17,16.09,16.09,0,0,0,27.24,56.9a15.92,15.92,0,0,0,1,5.6,21.41,21.41,0,0,0-14.08,20,21.14,21.14,0,0,0,14,20,31.41,31.41,0,0,0-.55,5.76,30.22,30.22,0,0,0,54.79,17.62,16.06,16.06,0,0,0,25-18.26,21.4,21.4,0,0,0,14.08-20" transform="translate(-14.17 -31.6)"/><path class="cls-2" d="M56.36,77.63l23.48,10.7,23.68-20.75a25.72,25.72,0,0,0,.51-5.21,26.48,26.48,0,0,0-48.32-15L51.77,67.84Z" transform="translate(-14.17 -31.6)"/><path class="cls-3" d="M32.05,102.49a27.19,27.19,0,0,0-.51,5.29A26.54,26.54,0,0,0,80,122.7l3.91-20.37-5.21-10L55.16,81.61Z" transform="translate(-14.17 -31.6)"/><path class="cls-4" d="M31.91,61.86,48,65.66l3.52-18.29A12.71,12.71,0,0,0,31.91,61.86" transform="translate(-14.17 -31.6)"/><path class="cls-5" d="M30.51,65.69A17.93,17.93,0,0,0,18.32,82.55,17.75,17.75,0,0,0,29.74,99.13L52.31,78.72l-4.14-8.85Z" transform="translate(-14.17 -31.6)"/><path class="cls-6" d="M84.16,122.7a12.64,12.64,0,0,0,20.34-10,12.75,12.75,0,0,0-.76-4.42l-16.08-3.76Z" transform="translate(-14.17 -31.6)"/><path class="cls-7" d="M87.43,100.26l17.7,4.14a17.91,17.91,0,0,0,12.19-16.85A17.71,17.71,0,0,0,105.88,71L82.73,91.28Z" transform="translate(-14.17 -31.6)"/><path class="cls-8" d="M164.19,106.68l2.15-.22.15,4.36A106.13,106.13,0,0,1,152.07,112q-8,0-11.31-4.62T137.43,93q0-19.44,15.45-19.45,7.47,0,11.17,4.18t3.69,13.12l-.29,4.22h-24.4q0,6.14,2.22,9.09t7.72,3Q158.51,107.13,164.19,106.68Zm-2-16q0-6.8-2.18-9.61c-1.46-1.87-3.82-2.81-7.1-2.81s-5.74,1-7.39,3S143,86.31,143,90.64Z" transform="translate(-14.17 -31.6)"/><path class="cls-8" d="M175.47,111.72V63.06H181v48.66Z" transform="translate(-14.17 -31.6)"/><path class="cls-8" d="M215.94,85.47v18.64c0,1.85,4.6,1.78,4.6,1.78l-.29,4.9c-3.89,0-7.11.32-9.05-1.55A32.28,32.28,0,0,1,197.9,112q-5.1,0-7.76-2.89t-2.67-8.28c0-3.59.92-6.24,2.74-7.94s4.68-2.75,8.58-3.14l11.6-1.11V85.47c0-2.52-.54-4.31-1.62-5.4a6,6,0,0,0-4.44-1.63l-14.57,0v-4.9H204q6.28,0,9.13,2.89T215.94,85.47Zm-22.77,15.08q0,6.8,5.62,6.8a30,30,0,0,0,9.9-1.7l1.7-.59V92.86l-10.94,1a7,7,0,0,0-4.8,1.92A6.77,6.77,0,0,0,193.17,100.55Z" transform="translate(-14.17 -31.6)"/><path class="cls-8" d="M237.58,78.52q-8.07,0-8.06,5.62a3.88,3.88,0,0,0,1.85,3.66q1.84,1.07,8.42,2.21t9.32,3.22c1.82,1.38,2.74,4,2.74,7.76s-1.22,6.58-3.66,8.36-6,2.66-10.69,2.66c-3.05,0-13.25-1.13-13.25-1.13l.29-4.81c5.87.57,10.1,1,13,1a12.82,12.82,0,0,0,6.55-1.36,4.94,4.94,0,0,0,2.25-4.59q0-3.21-1.92-4.36T236,94.56q-6.51-1-9.24-3c-1.82-1.33-2.74-3.8-2.74-7.39s1.27-6.26,3.81-8a16.58,16.58,0,0,1,9.5-2.59c3,0,13.44.77,13.44.77v4.83C245.23,78.91,240.73,78.52,237.58,78.52Z" transform="translate(-14.17 -31.6)"/><path class="cls-8" d="M278.59,79.11H266.83V96.78q0,6.36.93,8.35t4.4,2l6.57-.45.37,4.59a50.66,50.66,0,0,1-7.54.81c-3.84,0-6.5-.93-8-2.81s-2.22-5.44-2.22-10.72V79.11h-5.25V74.3h5.25V63h5.47V74.3h11.76Z" transform="translate(-14.17 -31.6)"/><path class="cls-8" d="M286.3,69.58V63.15h5.54v6.43Zm0,42.14V74.3h5.54v37.42Z" transform="translate(-14.17 -31.6)"/><path class="cls-8" d="M315.86,73.56a64.51,64.51,0,0,1,8.28.89l1.77.22-.22,4.51a87.37,87.37,0,0,0-8.72-.66q-6.29,0-8.54,3T306.17,92.6q0,8.1,2.11,11.28t8.76,3.17l8.72-.66L326,111a76.2,76.2,0,0,1-10.27,1q-8.65,0-11.94-4.44t-3.29-15q0-10.53,3.55-14.78T315.86,73.56Z" transform="translate(-14.17 -31.6)"/></svg>