<svg id="Layer_1" data-name="Layer 1" xmlns="http://www.w3.org/2000/svg" xmlns:xlink="http://www.w3.org/1999/xlink" viewBox="0 0 319.1 35.31"><defs><style>.cls-1{fill:none;}.cls-2{clip-path:url(#clip-path);}.cls-3{clip-path:url(#clip-path-2);}.cls-4{fill:#4ebd94;}.cls-5{clip-path:url(#clip-path-3);}.cls-6{fill:#335689;}</style><clipPath id="clip-path" transform="translate(-10.53 -67.38)"><path class="cls-1" d="M325.33,76.38a1.08,1.08,0,0,0,.78-.32,1.06,1.06,0,0,0,.32-.78V72.07a1.11,1.11,0,0,0-.31-.75,1,1,0,0,0-.79-.35H308.2a1.09,1.09,0,0,0-1.1,1.1v3.21a1.1,1.1,0,0,0,.31.75,1.05,1.05,0,0,0,.79.35h5.65V98a1,1,0,0,0,.32.78,1.06,1.06,0,0,0,.78.32h3.64a1.09,1.09,0,0,0,1.1-1.1V76.38Zm-31-5.8A14.29,14.29,0,0,0,287,72.51a14.15,14.15,0,0,0-5.27,5.26,14.39,14.39,0,0,0-1.93,7.31A14.21,14.21,0,0,0,287,97.57a14.4,14.4,0,0,0,7.29,1.93,13.53,13.53,0,0,0,9.77-3.9,1.15,1.15,0,0,0,.34-.84,1,1,0,0,0-.3-.73l-2.43-2.5a1,1,0,0,0-1.45,0,9.08,9.08,0,0,1-5.78,2.16,8.07,8.07,0,0,1-4.3-1.19,8.39,8.39,0,0,1-3-3.17A8.91,8.91,0,0,1,286.06,85a8.71,8.71,0,0,1,2.43-6.2,7.84,7.84,0,0,1,5.95-2.57,8.91,8.91,0,0,1,5.8,2.22,1,1,0,0,0,1.47,0l2.4-2.47a1.13,1.13,0,0,0,.33-.79,1.05,1.05,0,0,0-.4-.82,15.1,15.1,0,0,0-4.43-2.8A14.08,14.08,0,0,0,294.33,70.58Zm-28.71,17H275a1.09,1.09,0,0,0,1.1-1.1V83.2a1.1,1.1,0,0,0-.31-.75,1,1,0,0,0-.79-.35h-9.33V76.38h11.25a1.08,1.08,0,0,0,.78-.32,1.06,1.06,0,0,0,.32-.78V72.07a1.11,1.11,0,0,0-.31-.75,1,1,0,0,0-.79-.35H260.92a1.06,1.06,0,0,0-.78.32,1.08,1.08,0,0,0-.32.78V98a1.08,1.08,0,0,0,.32.78,1.06,1.06,0,0,0,.78.32h15.95A1.09,1.09,0,0,0,278,98V94.79a1.09,1.09,0,0,0-.31-.74,1,1,0,0,0-.79-.35H265.62ZM236.29,98V81.16h-.36l-.18.24,16.07,17.71a1.27,1.27,0,0,0,.93.39h.55a1.11,1.11,0,0,0,.73-.28,1,1,0,0,0,.37-.78V72.07a1.11,1.11,0,0,0-.31-.75,1,1,0,0,0-.79-.35h-3.61a1.09,1.09,0,0,0-1.1,1.1V88.25H249l.18-.24-16-17a1.27,1.27,0,0,0-.93-.39h-.59a1.11,1.11,0,0,0-.76.29,1,1,0,0,0-.34.77V98a1.09,1.09,0,0,0,1.1,1.1h3.57a1.09,1.09,0,0,0,1.1-1.1ZM207,98V81.16h-.36l-.18.24,16.07,17.71a1.26,1.26,0,0,0,.92.39H224a1.16,1.16,0,0,0,.74-.28,1,1,0,0,0,.36-.78V72.07a1.07,1.07,0,0,0-.31-.75A1,1,0,0,0,224,71h-3.6a1.06,1.06,0,0,0-.78.32,1.08,1.08,0,0,0-.32.78V88.25h.35l.18-.24-16-17a1.26,1.26,0,0,0-.92-.39h-.59a1.12,1.12,0,0,0-.77.29,1,1,0,0,0-.33.77V98a1.09,1.09,0,0,0,1.1,1.1h3.57A1.09,1.09,0,0,0,207,98ZM174.33,85.08a8.5,8.5,0,0,1,1.17-4.35,8.71,8.71,0,0,1,3.14-3.18A8.3,8.3,0,0,1,183,76.38a8.4,8.4,0,0,1,4.33,1.17,8.68,8.68,0,0,1,3.16,3.18,8.5,8.5,0,0,1,1.17,4.35,8.35,8.35,0,0,1-1.16,4.3,8.78,8.78,0,0,1-3.17,3.15A8.4,8.4,0,0,1,183,93.7a8.64,8.64,0,0,1-8.62-8.62Zm-3.87,7.27a14.36,14.36,0,0,0,5.22,5.22,14.7,14.7,0,0,0,14.56,0,14.44,14.44,0,0,0,5.25-5.22,14.19,14.19,0,0,0,1.93-7.27,14.39,14.39,0,0,0-1.93-7.31A14.36,14.36,0,0,0,183,70.58a14.26,14.26,0,0,0-12.49,7.19,14.29,14.29,0,0,0-1.93,7.31A14.1,14.1,0,0,0,170.46,92.35ZM157.22,70.58a14.35,14.35,0,0,0-7.31,1.93,14.12,14.12,0,0,0-5.26,5.26,14.29,14.29,0,0,0-1.93,7.31,14.1,14.1,0,0,0,1.93,7.27,14.29,14.29,0,0,0,5.28,5.22,14.45,14.45,0,0,0,7.29,1.93A13.5,13.5,0,0,0,167,95.6a1.16,1.16,0,0,0,.35-.84A1,1,0,0,0,167,94l-2.43-2.5a1,1,0,0,0-1.45,0,9.08,9.08,0,0,1-5.78,2.16,8.07,8.07,0,0,1-4.3-1.19,8.39,8.39,0,0,1-3-3.17A8.91,8.91,0,0,1,149,85a8.67,8.67,0,0,1,2.43-6.2,7.83,7.83,0,0,1,6-2.57,8.65,8.65,0,0,1,3.13.6,8.52,8.52,0,0,1,2.67,1.62,1,1,0,0,0,1.47,0L167,75.92a1.1,1.1,0,0,0,.34-.79,1.05,1.05,0,0,0-.4-.82,15.1,15.1,0,0,0-4.43-2.8A14.14,14.14,0,0,0,157.22,70.58Z"/></clipPath><clipPath id="clip-path-2" transform="translate(-10.53 -67.38)"><rect class="cls-1" x="-136.53" y="-46.28" width="613.81" height="345.27"/></clipPath><clipPath id="clip-path-3" transform="translate(-10.53 -67.38)"><path class="cls-1" d="M119.17,85.32h8a5.69,5.69,0,0,0,4.14-1.74A5.74,5.74,0,0,0,133,79.34a5.5,5.5,0,0,0-1.76-4,5.71,5.71,0,0,0-4.14-1.72h-8Zm-3.23,13.15V71.36a.74.74,0,0,1,.22-.55.77.77,0,0,1,.56-.23h10.61a8.76,8.76,0,0,1,6.31,2.54,8.3,8.3,0,0,1,2.62,6.18,8.14,8.14,0,0,1-1.68,5,10.18,10.18,0,0,1-4.39,3.34l5.62,10.4a.66.66,0,0,1,.12.41.74.74,0,0,1-.82.78h-2a1,1,0,0,1-.9-.62L126.92,88h-7.83V98.47a.74.74,0,0,1-.22.55.77.77,0,0,1-.56.23h-1.59a.77.77,0,0,1-.56-.23A.74.74,0,0,1,115.94,98.47Zm-23.6,0V71.36a.79.79,0,0,1,.78-.78h16.14a.7.7,0,0,1,.55.25.77.77,0,0,1,.23.53v1.19a.76.76,0,0,1-.23.55.74.74,0,0,1-.55.22H95.5v10h11.75a.75.75,0,0,1,.78.77v1.19a.77.77,0,0,1-.78.78H95.5V96.5h13.76a.79.79,0,0,1,.78.78v1.19a.79.79,0,0,1-.78.78H93.12a.79.79,0,0,1-.78-.78ZM71.16,85.81h6.52a6.08,6.08,0,0,0,4.4-1.76,6,6,0,0,0,1.82-4.5,5.43,5.43,0,0,0-1.8-4.24,6.38,6.38,0,0,0-4.42-1.62H71.16ZM68.05,98.47V71.36a.74.74,0,0,1,.22-.55.77.77,0,0,1,.56-.23h9a8.91,8.91,0,0,1,6.47,2.66,8.64,8.64,0,0,1,2.71,6.39,9.24,9.24,0,0,1-9.14,9.21H71.16v9.63a.72.72,0,0,1-.24.55.81.81,0,0,1-.54.23H68.83a.77.77,0,0,1-.56-.23A.74.74,0,0,1,68.05,98.47Zm-17.29,0v-13L40.89,71.77a.69.69,0,0,1-.13-.41.77.77,0,0,1,.21-.55.75.75,0,0,1,.57-.23h1.93a.81.81,0,0,1,.65.37L52.4,82.37,60.67,71a.83.83,0,0,1,.66-.37h1.93a.77.77,0,0,1,.57.21.69.69,0,0,1,.2.53.89.89,0,0,1-.12.45l-10,13.63V98.47a.74.74,0,0,1-.22.55.75.75,0,0,1-.55.23h-1.6a.79.79,0,0,1-.78-.78Zm-37,0V71.36a.72.72,0,0,1,.24-.55.79.79,0,0,1,.54-.23H16.1a.72.72,0,0,1,.56.25.76.76,0,0,1,.22.53v12H33.51v-12a.79.79,0,0,1,.78-.78h1.6a.7.7,0,0,1,.55.25.77.77,0,0,1,.23.53V98.47a.7.7,0,0,1-.25.55.77.77,0,0,1-.53.23h-1.6a.73.73,0,0,1-.55-.25.77.77,0,0,1-.23-.53V86.06H16.88V98.47a.74.74,0,0,1-.22.55.77.77,0,0,1-.56.23H14.51A.77.77,0,0,1,14,99,.74.74,0,0,1,13.73,98.47Z"/></clipPath></defs><title>hyperconnect</title><g class="cls-2"><g class="cls-3"><rect class="cls-4" x="128.99" width="190.1" height="35.31"/></g></g><g class="cls-5"><g class="cls-3"><rect class="cls-6" width="128.93" height="35.06"/></g></g></svg>