<svg id="Layer_1" data-name="Layer 1" xmlns="http://www.w3.org/2000/svg" viewBox="0 0 283.46 101.46"><defs><style>.cls-1{fill:#1e1e1c;}.cls-2{fill:#46b2b7;}</style></defs><title>icon</title><rect class="cls-1" x="2.54" y="27.12" width="15.26" height="64.42"/><path class="cls-1" d="M102.5,59.74h23.74V44.48H102.5a40.69,40.69,0,0,0,0,81.38h23.74V110.6H102.5a25.43,25.43,0,0,1,0-50.86Z" transform="translate(-28.35 -34.31)"/><path class="cls-1" d="M275.36,44.48a36.45,36.45,0,0,0-36.45,36.45v44.93h15.26V80.93a21.19,21.19,0,1,1,42.38,0v44.93h15.26V80.93A36.45,36.45,0,0,0,275.36,44.48Z" transform="translate(-28.35 -34.31)"/><path class="cls-1" d="M48.5,42.49a10.18,10.18,0,1,1-8-8A10.19,10.19,0,0,1,48.5,42.49Z" transform="translate(-28.35 -34.31)"/><path class="cls-2" d="M217.55,60.93,206.62,71.87a25.33,25.33,0,0,1-34.84,34.83l-10.93,10.94a40.53,40.53,0,0,0,56.7-56.71Z" transform="translate(-28.35 -34.31)"/><path class="cls-2" d="M159.69,85.11a25.34,25.34,0,0,1,38.57-21.6l10.93-10.94a40.53,40.53,0,0,0-56.7,56.71l10.93-10.93A25.21,25.21,0,0,1,159.69,85.11Z" transform="translate(-28.35 -34.31)"/><path class="cls-2" d="M235.49,42.59a10.14,10.14,0,1,1-8-8A10.15,10.15,0,0,1,235.49,42.59Z" transform="translate(-28.35 -34.31)"/><path class="cls-2" d="M154.26,123.65a10.14,10.14,0,1,1-8-8A10.15,10.15,0,0,1,154.26,123.65Z" transform="translate(-28.35 -34.31)"/></svg>