<svg id="Layer_1" data-name="Layer 1" xmlns="http://www.w3.org/2000/svg" xmlns:xlink="http://www.w3.org/1999/xlink" viewBox="0 0 146.84 159"><defs><style>.cls-1{fill:url(#무제_그라디언트);}.cls-2{fill:url(#무제_그라디언트_2);}.cls-3{fill:url(#무제_그라디언트_3);}.cls-4{fill:url(#무제_그라디언트_4);}.cls-5{fill:#010101;}.cls-6{fill:#fff;}</style><linearGradient id="무제_그라디언트" x1="135.63" y1="19.2" x2="231.39" y2="77" gradientTransform="matrix(1, 0, 0, -1, 0, 172)" gradientUnits="userSpaceOnUse"><stop offset="0" stop-color="#faee3c"/><stop offset="1" stop-color="#f37c3e"/></linearGradient><linearGradient id="무제_그라디언트_2" x1="155.79" y1="158.01" x2="243.17" y2="81.49" gradientTransform="matrix(1, 0, 0, -1, 0, 172)" gradientUnits="userSpaceOnUse"><stop offset="0" stop-color="#ef5b6b"/><stop offset="0.57" stop-color="#f36f4f"/><stop offset="1" stop-color="#f37c3e"/></linearGradient><linearGradient id="무제_그라디언트_3" x1="161.39" y1="88.73" x2="109.59" y2="121.07" gradientTransform="matrix(1, 0, 0, -1, 0, 172)" gradientUnits="userSpaceOnUse"><stop offset="0" stop-color="#7d5aa4"/><stop offset="0.38" stop-color="#b04d93"/><stop offset="0.75" stop-color="#dc4284"/><stop offset="0.94" stop-color="#ee3e7d"/></linearGradient><linearGradient id="무제_그라디언트_4" x1="160.44" y1="161.96" x2="109.87" y2="120.2" gradientTransform="matrix(1, 0, 0, -1, 0, 172)" gradientUnits="userSpaceOnUse"><stop offset="0" stop-color="#ef5b6b"/><stop offset="0.36" stop-color="#ee5173"/><stop offset="1" stop-color="#ee3e7d"/></linearGradient></defs><title>jetbrain</title><path id="_Path_" data-name=" Path " class="cls-1" d="M241.65,93.24a5.67,5.67,0,0,0-7.56-8.43h0l-102.35,56a12.38,12.38,0,1,0,9.89,22.69,12.06,12.06,0,0,0,1.7-.91h0c.31-.2.6-.4.88-.62l95.26-67c.58-.39,1.88-1.4,2.22-1.72h0Z" transform="translate(-96.66 -5.54)"/><path id="_Path_2" data-name=" Path 2" class="cls-2" d="M241.77,85.06h0L163.91,8.62A9.44,9.44,0,0,0,147.51,15h0a9.42,9.42,0,0,0,2.61,6.56h0a9.89,9.89,0,0,0,1.44,1.22l82.28,70.47h0a5.7,5.7,0,1,0,7.93-8.18Z" transform="translate(-96.66 -5.54)"/><path id="_Path_3" data-name=" Path 3" class="cls-3" d="M166.43,78.26c-.11-.09-48.05-38-49-38.56h0a13.66,13.66,0,1,0-14.14,23.37h0a12.89,12.89,0,0,0,2.33,1.14c.49.18,55.42,23,55.42,23h0a5.25,5.25,0,0,0,5.43-8.92Z" transform="translate(-96.66 -5.54)"/><path id="_Path_4" data-name=" Path 4" class="cls-4" d="M157,5.54a9.38,9.38,0,0,0-5.57,1.83l-48.7,32.78-.29.2h-.06a13.65,13.65,0,0,0,16,22.11h0a13.65,13.65,0,0,0,2.19-2l42.23-38h0A9.44,9.44,0,0,0,166.43,15h0A9.49,9.49,0,0,0,157,5.54Z" transform="translate(-96.66 -5.54)"/><g id="_Group_" data-name=" Group "><rect id="_Path_5" data-name=" Path 5" class="cls-5" x="42.31" y="45.69" width="62.24" height="62.24"/><rect id="_Path_6" data-name=" Path 6" class="cls-6" x="47.69" y="96.26" width="23.34" height="3.88"/><g id="_Group_2" data-name=" Group 2"><path id="_Compound_Path_" data-name=" Compound Path " class="cls-6" d="M144.08,67.62l1.8-1.71a2.07,2.07,0,0,0,1.6.94,1.22,1.22,0,0,0,1.17-1.28s0-.09,0-.14V59h2.8v6.43a3.81,3.81,0,0,1-1,2.86,3.89,3.89,0,0,1-2.79,1A4.13,4.13,0,0,1,144.08,67.62Z" transform="translate(-96.66 -5.54)"/><path id="_Compound_Path_2" data-name=" Compound Path 2" class="cls-6" d="M152.08,59h8.15v2.38h-5.37v1.55h4.89v2.22h-4.89v1.58h5.46v2.44h-8.23V59Z" transform="translate(-96.66 -5.54)"/><path id="_Compound_Path_3" data-name=" Compound Path 3" class="cls-6" d="M163.91,61.47h-3V59h8.88v2.44h-3v7.71h-2.81V61.47Z" transform="translate(-96.66 -5.54)"/><path id="_Compound_Path_4" data-name=" Compound Path 4" class="cls-6" d="M144.34,71.53h5.21a3.79,3.79,0,0,1,2.77.9,2.27,2.27,0,0,1,.67,1.64h0a2.35,2.35,0,0,1-1.56,2.26,2.43,2.43,0,0,1,2,2.44h0c0,1.73-1.41,2.8-3.83,2.8h-5.23V71.42Zm5.85,3.12c0-.56-.45-.86-1.22-.86h-1.84v1.78h1.77c.85,0,1.34-.29,1.34-.88h0Zm-1,2.89h-2.15V79.4h2.17c.87,0,1.35-.33,1.35-.92h0c0-.58-.43-.94-1.38-.94Z" transform="translate(-96.66 -5.54)"/><path id="_Compound_Path_5" data-name=" Compound Path 5" class="cls-6" d="M153.83,71.53h4.8a4.48,4.48,0,0,1,3.31,1.08,3.15,3.15,0,0,1,.91,2.36h0a3.22,3.22,0,0,1-2.09,3.13l2.44,3.54H160l-2.09-3h-1.22v3.08h-2.81V71.53Zm4.68,4.88A1.21,1.21,0,0,0,160,75.5a.8.8,0,0,0,0-.31h0a1.21,1.21,0,0,0-1.18-1.26,1.32,1.32,0,0,0-.34,0h-1.83v2.44h1.85Z" transform="translate(-96.66 -5.54)"/><path id="_Compound_Path_6" data-name=" Compound Path 6" class="cls-6" d="M166.12,71.45h2.75l4.32,10.21h-3.1l-.72-1.82h-3.93l-.72,1.82h-2.95Zm2.44,6.21-1.13-2.87-1.15,2.87h2.28Z" transform="translate(-96.66 -5.54)"/><path id="_Compound_Path_7" data-name=" Compound Path 7" class="cls-6" d="M173.47,71.53h2.81V81.68h-2.81Z" transform="translate(-96.66 -5.54)"/><path id="_Compound_Path_8" data-name=" Compound Path 8" class="cls-6" d="M177,71.53h2.63l4.17,5.36V71.53h2.79V81.68h-2.45l-4.34-5.57v5.57H177V71.53Z" transform="translate(-96.66 -5.54)"/><path id="_Compound_Path_9" data-name=" Compound Path 9" class="cls-6" d="M186.74,80.17l1.56-1.87a5.2,5.2,0,0,0,3.28,1.23c.77,0,1.23-.26,1.23-.7h0c0-.44-.33-.65-1.73-1-2.16-.49-3.82-1.1-3.82-3.17h0c0-1.89,1.49-3.25,3.93-3.25a6.37,6.37,0,0,1,4.18,1.34l-1.4,2a5,5,0,0,0-2.85-1c-.68,0-1,.28-1,.65h0c0,.46.34.67,1.77,1,2.32.51,3.76,1.22,3.76,3.16h0c0,2.07-1.64,3.31-4.1,3.31A7.06,7.06,0,0,1,186.74,80.17Z" transform="translate(-96.66 -5.54)"/></g></g></svg>