<svg id="Layer_1" data-name="Layer 1" xmlns="http://www.w3.org/2000/svg" viewBox="0 0 230.84 135.85"><defs><style>.cls-1{fill:#b1d9a5;}.cls-2{fill:#38b076;}.cls-3{fill:#344f5b;}.cls-4{fill:#fff;}.cls-5{fill:#030306;}.cls-6{fill:none;stroke:#231f20;stroke-miterlimit:10;stroke-width:0.75px;}</style></defs><title>lablup</title><polygon id="_Path_" data-name="&lt;Path&gt;" class="cls-1" points="0 9.62 16.08 18.69 32.25 9.62 16.08 0 0 9.62"/><polygon id="_Path_2" data-name="&lt;Path&gt;" class="cls-1" points="48.94 76.12 65.58 66.22 81.88 76.12 48.94 95.2 16.08 76.12 32.25 66.22 48.94 76.12"/><polygon id="_Path_3" data-name="&lt;Path&gt;" class="cls-1" points="81.88 37.7 115.09 18.69 148.18 37.7 181.26 18.69 197.82 28.57 164.99 48.03 197.82 66.22 181.26 76.12 164.99 66.22 148.18 76.12 181.24 95.16 230.84 66.9 197.82 48.03 230.84 28.57 181.26 0 148.18 18.69 115.09 0 65.58 28.57 81.88 37.7"/><polygon id="_Path_4" data-name="&lt;Path&gt;" class="cls-1" points="98.56 48.03 115.09 56.81 131.73 48.03 131.73 66.22 115.09 76.12 98.63 66.22 98.56 48.03"/><polygon id="_Path_5" data-name="&lt;Path&gt;" class="cls-2" points="16.08 76.12 32.25 66.22 32.25 9.62 16.08 18.69 16.08 76.12"/><polygon id="_Path_6" data-name="&lt;Path&gt;" class="cls-2" points="81.88 37.7 115.09 18.69 115.09 37.7 98.56 48.03 98.63 85.16 48.94 113.82 48.94 95.2 81.88 76.12 81.88 37.7"/><polygon id="_Path_7" data-name="&lt;Path&gt;" class="cls-2" points="148.18 37.7 181.26 18.69 181.26 38.39 164.99 48.03 164.99 66.22 148.18 76.12 148.18 37.7"/><polygon id="_Path_8" data-name="&lt;Path&gt;" class="cls-2" points="181.24 95.16 230.84 66.9 230.82 85.16 181.26 113.85 181.24 95.16"/><polygon id="_Path_9" data-name="&lt;Path&gt;" class="cls-2" points="115.09 76.12 131.73 66.22 131.73 85.16 115.09 95.2 115.09 76.12"/><polygon id="_Path_10" data-name="&lt;Path&gt;" class="cls-3" points="0 9.62 16.08 18.69 16.08 76.12 48.94 95.2 48.94 113.82 0 85.16 0 9.62"/><polygon id="_Path_11" data-name="&lt;Path&gt;" class="cls-3" points="65.58 28.57 81.88 37.7 81.88 76.12 65.58 66.22 65.58 28.57"/><polygon id="_Path_12" data-name="&lt;Path&gt;" class="cls-3" points="115.09 18.69 148.18 37.7 148.18 76.12 181.24 95.16 181.26 113.85 131.73 85.16 131.73 48.03 115.09 37.7 115.09 18.69"/><polygon id="_Path_13" data-name="&lt;Path&gt;" class="cls-3" points="98.63 66.22 115.09 76.12 115.09 95.2 98.63 85.16 98.63 66.22"/><polygon id="_Path_14" data-name="&lt;Path&gt;" class="cls-3" points="181.26 18.69 181.26 38.39 197.82 28.57 181.26 18.69"/><polygon id="_Path_15" data-name="&lt;Path&gt;" class="cls-3" points="164.99 48.03 197.82 66.22 181.26 76.12 164.99 66.22 164.99 48.03"/><polygon id="_Path_16" data-name="&lt;Path&gt;" class="cls-2" points="197.82 48.03 213.19 56.82 230.82 48.03 230.84 28.57 197.82 48.03"/><g id="text"><polygon id="_Path_17" data-name="&lt;Path&gt;" class="cls-1" points="48.72 121.07 52.41 121.07 52.41 132.15 63.49 132.15 63.49 135.84 48.72 135.84 48.72 121.07"/><polygon id="_Path_18" data-name="&lt;Path&gt;" class="cls-2" points="78.26 121.07 78.26 135.84 74.57 135.84 74.57 132.15 67.18 132.15 67.18 135.84 63.49 135.84 63.49 121.07 78.26 121.07"/><rect id="_Path_19" data-name="&lt;Path&gt;" class="cls-4" x="67.18" y="124.77" width="7.39" height="3.69"/><polygon id="_Path_20" data-name="&lt;Path&gt;" class="cls-3" points="93.03 135.84 78.26 135.84 78.26 121.07 89.34 121.07 89.34 128.46 93.03 128.46 93.03 135.84"/><polygon id="_Path_21" data-name="&lt;Path&gt;" class="cls-1" points="93.03 121.07 96.72 121.07 96.72 132.15 107.8 132.15 107.8 135.84 93.03 135.84 93.03 121.07"/><polygon id="_Path_22" data-name="&lt;Path&gt;" class="cls-2" points="107.8 121.07 111.49 121.07 111.49 132.15 118.88 132.15 118.88 121.07 122.57 121.07 122.57 135.84 107.8 135.84 107.8 121.07"/><polygon id="_Path_23" data-name="&lt;Path&gt;" class="cls-3" points="126.27 135.84 126.27 132.15 137.34 132.15 137.34 121.07 122.57 121.07 122.57 135.84 126.27 135.84"/><rect id="_Path_24" data-name="&lt;Path&gt;" class="cls-4" x="81.95" y="124.77" width="3.69" height="1.85"/><rect id="_Path_25" data-name="&lt;Path&gt;" class="cls-4" x="81.95" y="130.47" width="3.69" height="1.68"/><rect id="_Path_26" data-name="&lt;Path&gt;" class="cls-4" x="126.27" y="124.77" width="7.39" height="3.69"/><rect id="_Path_27" data-name="&lt;Path&gt;" class="cls-1" x="143.75" y="121.07" width="3.69" height="3.69"/><rect id="_Path_28" data-name="&lt;Path&gt;" class="cls-1" x="143.75" y="126.61" width="3.69" height="9.23"/><polygon id="_Path_29" data-name="&lt;Path&gt;" class="cls-2" points="151.14 126.61 151.14 135.84 154.83 135.84 154.83 130.47 158.52 130.47 158.52 135.84 162.22 135.84 162.22 126.61 154.83 126.61 151.14 126.61"/><polygon id="_Path_30" data-name="&lt;Path&gt;" class="cls-3" points="176.99 124.77 165.91 124.77 165.91 135.84 176.99 135.84 176.99 132.23 169.6 132.15 169.6 128.46 176.99 128.46 176.99 124.77"/><rect id="_Path_31" data-name="&lt;Path&gt;" class="cls-5" x="177.68" y="132.15" width="3.69" height="3.69"/><path id="_Path_32" data-name="&lt;Path&gt;" class="cls-6" d="M197.35,153.75" transform="translate(-54.66 -16.33)"/></g></svg>