<svg id="Layer_1" data-name="Layer 1" xmlns="http://www.w3.org/2000/svg" viewBox="0 0 283.46 99.04"><defs><style>.cls-1{fill:#48b749;}</style></defs><title>line</title><path class="cls-1" d="M126.17,35.52H111.53a4.06,4.06,0,0,0-4.06,4.06V130.5a4.06,4.06,0,0,0,4.06,4.06h14.64a4.06,4.06,0,0,0,4.06-4.06V39.58A4.06,4.06,0,0,0,126.17,35.52Z" transform="translate(-28.35 -35.52)"/><path class="cls-1" d="M226.92,35.52H212.28a4.06,4.06,0,0,0-4.06,4.06v54L166.55,37.32c-.1-.14-.21-.28-.32-.41l0,0-.24-.25-.07-.06-.22-.19-.11-.08-.21-.14-.12-.08L165,36l-.13-.06-.23-.1-.13,0-.24-.07-.14,0-.24,0-.17,0-.21,0h-15a4.07,4.07,0,0,0-4.07,4.06V130.5a4.07,4.07,0,0,0,4.07,4.06h14.64a4.06,4.06,0,0,0,4.06-4.06v-54L209,132.84a4.11,4.11,0,0,0,1,1l.05,0,.25.15.11.06.2.1.19.08.13,0,.27.09h.06a4,4,0,0,0,1,.14h14.64A4.06,4.06,0,0,0,231,130.5V39.58A4.06,4.06,0,0,0,226.92,35.52Z" transform="translate(-28.35 -35.52)"/><path class="cls-1" d="M90.88,111.79H51.11V39.58a4.06,4.06,0,0,0-4.06-4.06H32.41a4.06,4.06,0,0,0-4.06,4.06v90.91h0a4,4,0,0,0,1.13,2.81l.06.06.06.06a4,4,0,0,0,2.81,1.13H90.88a4.06,4.06,0,0,0,4.06-4.07V115.86A4.06,4.06,0,0,0,90.88,111.79Z" transform="translate(-28.35 -35.52)"/><path class="cls-1" d="M307.75,58.29a4.07,4.07,0,0,0,4.06-4.07V39.58a4.06,4.06,0,0,0-4.06-4.06H249.27a4.08,4.08,0,0,0-2.82,1.14s0,0,0,.05l-.06.07a4,4,0,0,0-1.13,2.8h0v90.91h0a4.06,4.06,0,0,0,1.14,2.81l.05.06.06.06a4,4,0,0,0,2.81,1.13h58.48a4.07,4.07,0,0,0,4.06-4.07V115.86a4.07,4.07,0,0,0-4.06-4.07H268V96.42h39.77a4.06,4.06,0,0,0,4.06-4.06V77.72a4.06,4.06,0,0,0-4.06-4.06H268V58.29Z" transform="translate(-28.35 -35.52)"/></svg>