<svg id="Layer_1" data-name="Layer 1" xmlns="http://www.w3.org/2000/svg" viewBox="0 0 295.3 72.12"><defs><style>.cls-1{fill:#2ec3e4;}.cls-2{fill:#333;}</style></defs><title>lunit</title><path class="cls-1" d="M37.17,121a14.75,14.75,0,1,1,8.07-27.09L67.06,72.11a15.82,15.82,0,0,1-2.25-8.26A14.75,14.75,0,1,1,79.56,78.59a15.83,15.83,0,0,1-8.27-2.25L49.48,98.11A14.76,14.76,0,0,1,37.17,121Zm0-23.5A8.75,8.75,0,0,0,31,112.42,8.67,8.67,0,0,0,37.17,115a8.76,8.76,0,0,0,6.22-14.92l0,0h0A8.69,8.69,0,0,0,37.17,97.48Zm36-27.27,0,0a9,9,0,0,0,6.4,2.36,8.76,8.76,0,1,0-8.76-8.75A9,9,0,0,0,73.13,70.21Z" transform="translate(-22.43 -48.98)"/><path class="cls-2" d="M150.35,115.51H124c-5.87,0-5.88-.58-5.88-7.49V52.22a2.81,2.81,0,1,0-5.59,0v61.39c0,4.14,2.82,7.49,7,7.49h30.87a2.8,2.8,0,1,0,0-5.59Z" transform="translate(-22.43 -48.98)"/><path class="cls-2" d="M275.6,68a2.85,2.85,0,0,0-2.8,2.8v47a2.8,2.8,0,0,0,5.59,0v-47A2.85,2.85,0,0,0,275.6,68Z" transform="translate(-22.43 -48.98)"/><path class="cls-2" d="M275.6,49a4.3,4.3,0,0,0,0,8.6,4.3,4.3,0,0,0,0-8.6Z" transform="translate(-22.43 -48.98)"/><path class="cls-2" d="M314.94,115.39h-1.75c-5.87,0-5.88-.58-5.88-7.49V72.73h7.84a2.48,2.48,0,1,0,0-5h-7.84V52.09a2.81,2.81,0,1,0-5.59,0V67.78h-6.34a2.48,2.48,0,1,0,0,5h6.34v40.75c0,4.14,2.82,7.5,7,7.5h6.26a2.8,2.8,0,0,0,0-5.59Z" transform="translate(-22.43 -48.98)"/><path class="cls-2" d="M240.43,67.48c-7.4,0-14.7,3.78-18.4,8.22V71.19a2.75,2.75,0,0,0-5.5,0V117.4a2.75,2.75,0,0,0,5.5,0v-35c3.28-4.65,10-9.94,16.6-9.94,7.4,0,12.37,3,12.37,12.8V117.4a2.75,2.75,0,0,0,5.5,0V84.09C256.5,72.56,250.79,67.48,240.43,67.48Z" transform="translate(-22.43 -48.98)"/><path class="cls-2" d="M199.29,67.48a2.8,2.8,0,0,0-2.75,2.75v35c-3.28,4.66-10,9.94-16.6,9.94-7.41,0-12.38-3-12.38-12.8V70.23a2.75,2.75,0,1,0-5.49,0v33.31c0,11.53,5.71,16.61,16.07,16.61,7.4,0,14.7-3.78,18.4-8.22v4.52a2.75,2.75,0,1,0,5.5,0V70.23A2.8,2.8,0,0,0,199.29,67.48Z" transform="translate(-22.43 -48.98)"/></svg>