<svg id="Layer_1" data-name="Layer 1" xmlns="http://www.w3.org/2000/svg" viewBox="0 0 311.81 108.97"><defs><style>.cls-1{fill:#f58220;}.cls-2{fill:#00427a;}</style></defs><title>miraeasset</title><path class="cls-1" d="M326,28.05c-5.1,21.09-23.38,32.59-34.13,38.73l-.46-.63c4.4-3.58,19.53-14.74,24.37-33.25Z" transform="translate(-14.17 -28.05)"/><path class="cls-2" d="M60.36,68.57c-.28,1.92-4.18,29.16-4.55,31.7h8.74c.27-1.93,4.18-29.17,4.54-31.7Z" transform="translate(-14.17 -28.05)"/><path class="cls-2" d="M131.83,68.57c-.28,1.92-4.18,29.16-4.54,31.7h20.47c.2-1.4.72-5.07,1-6.84H136.33l.85-5.86h11.25c.19-1.36.66-4.66.91-6.39H138.09l.83-5.78H151c.2-1.39.74-5.06,1-6.83Z" transform="translate(-14.17 -28.05)"/><path class="cls-2" d="M34.57,86.72s7.3-16.7,7.87-18.15h11C53.44,70.79,52,98,52,100.26H44.08l1.31-22.19s-8.91,20.79-9.5,22.19H29.64l-2.8-22.19c-.21,1-3.17,15.84-4.79,22.19H14.17C15,97.43,21,70.2,21.49,68.57H32.08Z" transform="translate(-14.17 -28.05)"/><path class="cls-2" d="M116.48,93.85s.56,5.17.76,6.41h8.37c-.47-2.61-5-29.84-5.37-31.69h-10.6C109,69.89,96.93,97.15,95.5,100.26H104c.45-1.06,2.6-6.4,2.6-6.4ZM109,87.31l5-11.77,1.63,11.77Z" transform="translate(-14.17 -28.05)"/><path class="cls-2" d="M81.27,74.52h2A4.76,4.76,0,0,1,87,75.72a3.81,3.81,0,0,1,.69,3.19s-.26,2.41-1.86,3.18a5.9,5.9,0,0,1-2.92.76H78.93l7.45,17.42h8.48L88.45,86.91c3.88-.72,6.91-1.87,7.68-7.9a16.4,16.4,0,0,0,.16-2.15,7.91,7.91,0,0,0-1.74-5.36c-2.1-2.43-5.71-2.93-8.39-2.93h-12c-.28,1.92-4.18,29.16-4.55,31.7h8c.27-1.77,3.68-25.75,3.68-25.75" transform="translate(-14.17 -28.05)"/><path class="cls-2" d="M252.7,81.18l.48-.11-.49.11Z" transform="translate(-14.17 -28.05)"/><path class="cls-2" d="M256.23,80.35c-.67.15-1.34.33-2,.48.68-.15,1.35-.33,2-.48" transform="translate(-14.17 -28.05)"/><path class="cls-2" d="M235.7,84.32h0" transform="translate(-14.17 -28.05)"/><path class="cls-2" d="M258.3,79.82l-1.2.32,1.2-.32" transform="translate(-14.17 -28.05)"/><path class="cls-2" d="M241.26,83.44h0a.93.93,0,0,1-.23,0,.93.93,0,0,0,.23,0" transform="translate(-14.17 -28.05)"/><path class="cls-2" d="M238.74,83.87l-.49.07.49-.07" transform="translate(-14.17 -28.05)"/><path class="cls-2" d="M269.89,76.45h0c-.89.31-1.82.58-2.77.88.95-.3,1.88-.57,2.77-.88" transform="translate(-14.17 -28.05)"/><path class="cls-2" d="M266.67,77.48l-1.2.35,1.2-.35" transform="translate(-14.17 -28.05)"/><path class="cls-2" d="M265,78c-1.3.39-2.64.78-4,1.16,1.4-.38,2.74-.77,4-1.16" transform="translate(-14.17 -28.05)"/><path class="cls-2" d="M260.27,79.31l-1.2.32,1.2-.32" transform="translate(-14.17 -28.05)"/><path class="cls-2" d="M217.22,86.28l-.16,0,.16,0" transform="translate(-14.17 -28.05)"/><path class="cls-2" d="M196.33,86.87h0" transform="translate(-14.17 -28.05)"/><path class="cls-2" d="M185.05,86.49h0Z" transform="translate(-14.17 -28.05)"/><path class="cls-2" d="M212.08,86.58h0Z" transform="translate(-14.17 -28.05)"/><path class="cls-2" d="M199.29,86.89h0Z" transform="translate(-14.17 -28.05)"/><path class="cls-2" d="M219.71,86.11a.82.82,0,0,0-.21,0,.82.82,0,0,1,.21,0" transform="translate(-14.17 -28.05)"/><path class="cls-2" d="M221.92,85.92h0Z" transform="translate(-14.17 -28.05)"/><path class="cls-2" d="M214.7,86.44h0" transform="translate(-14.17 -28.05)"/><path class="cls-2" d="M266.65,68.57c-.2,1.32-.82,5.5-1.11,7.54a124.56,124.56,0,0,0,20.51-7.54Z" transform="translate(-14.17 -28.05)"/><path class="cls-2" d="M209.2,82.63a14.47,14.47,0,0,0-2.7-1.6l-2.31-1.14,0,0,0,0c-.74-.42-2.48-1.44-2.48-3.13a2.6,2.6,0,0,1,.92-2,3.74,3.74,0,0,1,3-.6,11.09,11.09,0,0,1,5.11,2.83c.9-1.73,2.62-5,3.24-6.22a14.7,14.7,0,0,0-7.41-3.29,13.69,13.69,0,0,0-10.23,2.23,10.4,10.4,0,0,0-4,7.17,12.61,12.61,0,0,0-.07,1.48A8.8,8.8,0,0,0,193,82a5,5,0,0,1,.56.06c4,.29,9.4.53,15.65.58" transform="translate(-14.17 -28.05)"/><path class="cls-2" d="M250.49,75.4h12.07c.2-1.4.73-5.06,1-6.83H243.4c-.12.82-.89,6.21-1.77,12.34,2.78-.35,5.55-.75,8.23-1.24Z" transform="translate(-14.17 -28.05)"/><path class="cls-2" d="M269.89,76.45h0c-.89.31-1.82.58-2.77.88l-.46.15-1.19.36L265,78c-1.31.38-2.64.77-4,1.15l-.67.18-1.2.31-.78.2-1.19.32c-.29.06-.59.13-.87.21l-2,.48-1,.24-.48.11h0c-3.58.8-7.39,1.58-11.43,2.27l-.24,0-2.28.39-.49.06c-.79.14-1.59.26-2.41.38h-.14q-6.52,1-13.71,1.6h-.07l-2.21.19-.21,0-2.28.15-.16,0-2.37.14h-.12l-2.43.13h-.06q-6,.3-12.5.31h-.3l-3,0h-.52c-3.49-.06-7.05-.18-10.7-.37H185c-5.51-.29-11.2-.75-17.07-1.42l6.77-6.35a92,92,0,0,0,9.36,2.15c-1-6.13-1.95-11.51-2.09-12.3h-10.6c-.6,1.32-12.71,28.58-14.13,31.7h8.5l3.31-7.88H178s.86,6.63,1,7.89h8.37c-.18-1-1-5.81-1.92-11.37,6,.34,11.95.4,17.53.33a2.82,2.82,0,0,1,.44,1.51,3.92,3.92,0,0,1-.05.59,2.6,2.6,0,0,1-1.07,1.7,5.46,5.46,0,0,1-4,.43c-2.7-.46-4.85-2.51-6.59-4.22l-4.1,6.7a19.3,19.3,0,0,0,10.29,5.2A13.62,13.62,0,0,0,208,98.85a10.89,10.89,0,0,0,4.31-7.38,11.61,11.61,0,0,0,.17-2.52c6-.26,11-.63,14.14-.9a3.32,3.32,0,0,1,1.58,2.69,3.92,3.92,0,0,1,0,.59,2.59,2.59,0,0,1-1.09,1.7c-1.14.81-2.8.63-3.93.43-2.72-.46-4.87-2.51-6.61-4.22-1.08,1.78-3.35,5.5-4.1,6.7a19.32,19.32,0,0,0,10.31,5.2,13.54,13.54,0,0,0,10.05-2.29,10.92,10.92,0,0,0,4.34-7.38,10,10,0,0,0-.19-4.64c1.36-.18,2.65-.39,3.89-.59-.94,6.65-1.83,12.87-2,14h20.48c.19-1.4.72-5.07,1-6.85H247.9l.84-5.86H260c.18-1.21.57-4,.84-5.8,1.53-.48,2.31-.77,2.31-.77s3.79-1.15,8.73-3c-.72,5-2.89,20.14-3.19,22.24h8.86L281,76.45h6.42c.17-1.37.79-5.72,1.08-7.69a112.3,112.3,0,0,1-18.58,7.69" transform="translate(-14.17 -28.05)"/><path class="cls-2" d="M231.31,81,229,79.88h0l0,0c-.75-.42-2.5-1.43-2.5-3.13a2.67,2.67,0,0,1,.92-2,3.71,3.71,0,0,1,3-.61,11.16,11.16,0,0,1,5.12,2.83c.9-1.72,2.61-5,3.24-6.21a14.78,14.78,0,0,0-7.41-3.29,13.73,13.73,0,0,0-10.23,2.23,10.37,10.37,0,0,0-4,7.17c0,.51-.09,1-.09,1.48a8.43,8.43,0,0,0,1.05,4.28c4.72-.1,9.69-.34,14.7-.75a15.75,15.75,0,0,0-1.48-.77" transform="translate(-14.17 -28.05)"/><polygon class="cls-2" points="109.6 108.53 113.78 108.53 117.67 81.72 113.49 81.72 109.6 108.53"/><path class="cls-2" d="M156,119.46h-2.7l1.4-9.68h-4.17l-2.71,18.61h-8.88l.82-5.63h6l1.72-11.87H137.31l-.55,3.79h6L142.1,119h-6l-1.54,10.63h0a4.06,4.06,0,0,0,0,.88,1.78,1.78,0,0,0,1.78,1.69h10.93l-.63,4.41h4.17l1.94-13.34h2.7l-1.94,13.34h4.18l3.89-26.81H157.4Z" transform="translate(-14.17 -28.05)"/><path class="cls-2" d="M244.7,119.46H242l1.41-9.68h-4.18l-2.7,18.61h-9.1l2-13.71h5.82l.55-3.79h-10l-2.71,18.71a3.49,3.49,0,0,0,0,.89,1.78,1.78,0,0,0,1.78,1.69H236l-.64,4.41h4.18l1.93-13.34h2.7l-1.93,13.34h4.18l3.88-26.81h-4.17Z" transform="translate(-14.17 -28.05)"/><path class="cls-2" d="M180.82,109.78l-1.4,9.68h-2.18v-.26h0a13.77,13.77,0,0,0-1-5.71c-.94-2-2.35-3.08-4.2-3.08H172c-1.86,0-3.52,1.06-4.92,3.15a19.45,19.45,0,0,0-2.74,8.68c-.42,3.71-.15,6.63.8,8.69s2.35,3.08,4.2,3.08h.11c1.86,0,3.51-1.06,4.92-3.15a18.36,18.36,0,0,0,2.59-7.51l0-.11h1.94l-1.94,13.34h4.18L185,109.78Zm-7.64,12.44a20.36,20.36,0,0,1-1.28,5.5c-.61,1.48-1.31,2.24-2.07,2.26h0c-.77,0-1.31-.79-1.6-2.27a19,19,0,0,1-.05-5.49,20.19,20.19,0,0,1,1.28-5.49c.61-1.49,1.3-2.25,2.07-2.26h0c.77,0,1.31.78,1.6,2.27a19.28,19.28,0,0,1,.05,5.48" transform="translate(-14.17 -28.05)"/><polygon class="cls-2" points="168.94 108.53 173.11 108.53 177 81.72 172.83 81.72 168.94 108.53"/><path class="cls-2" d="M209.67,128h0a4.15,4.15,0,0,1,0-1,8.66,8.66,0,0,1,.11-1h-4.85a6.35,6.35,0,0,1-.16.87,5.45,5.45,0,0,1-.42,1.19c-1,2.07-3.63,4.75-10.61,5.75l2.19,3.23a21.46,21.46,0,0,0,4.05-1.07,15.08,15.08,0,0,0,6.81-4.7l.07-.09.05.1a8.83,8.83,0,0,0,1.79,2.2,15.78,15.78,0,0,0,6.71,3.51l2.65-3a22.71,22.71,0,0,1-3.88-1.46c-2.66-1.31-4.2-2.88-4.46-4.56" transform="translate(-14.17 -28.05)"/><polygon class="cls-2" points="198.57 96.8 200.76 81.72 196.59 81.72 195.93 86.24 192.26 86.24 191.73 89.87 195.4 89.87 194.4 96.8 198.57 96.8"/><polygon class="cls-2" points="200.54 96.8 204.72 96.8 206.9 81.72 202.73 81.72 200.54 96.8"/><path class="cls-2" d="M197.18,123.5l0,0,.08-.08a32.53,32.53,0,0,0,3.86-4,24.2,24.2,0,0,0,3.2,5l.17.19,3.05-2.17a14,14,0,0,1-2-2.59,8.43,8.43,0,0,1-.49-.84h0a8.71,8.71,0,0,1-.41-.93l0-.09h0q-.15-.44-.27-.9s0,0,0-.06l0-.07a17.21,17.21,0,0,1,0-6.28h-4.36a16.18,16.18,0,0,1-1.17,5.58,15.89,15.89,0,0,1-4.37,4.88,21.29,21.29,0,0,1-1.77,1.35l2.44,2.73a25.15,25.15,0,0,0,2.13-1.65" transform="translate(-14.17 -28.05)"/><path class="cls-2" d="M105.8,129.58v0a3.61,3.61,0,0,0,0,.9,1.78,1.78,0,0,0,1.78,1.68h12.36L123,110.89H108.52Zm6.34-14.9h6.14l-2,13.71h-6.14Z" transform="translate(-14.17 -28.05)"/><polygon class="cls-2" points="237.37 100.39 248.4 100.39 247.21 108.53 251.39 108.53 252.57 100.39 263.53 100.39 264.08 96.6 237.91 96.6 237.37 100.39"/><path class="cls-2" d="M275.77,111.58q-2.91-2-8.44-2.13a18.09,18.09,0,0,0-9.06,1.85c-2.12,1.16-3.32,2.65-3.6,4.44a4.46,4.46,0,0,0,2.17,4.55q2.9,2.05,8.43,2.16a17.93,17.93,0,0,0,9.07-1.88c2.13-1.16,3.34-2.65,3.63-4.44A4.48,4.48,0,0,0,275.77,111.58Zm-2.58,4.48a3.15,3.15,0,0,1-2.12,2.26,12.55,12.55,0,0,1-5.31.84,10.69,10.69,0,0,1-5-1,2.15,2.15,0,0,1-1.31-2.32,3.2,3.2,0,0,1,2.09-2.25,12.6,12.6,0,0,1,5.32-.84,10.73,10.73,0,0,1,5,1A2.16,2.16,0,0,1,273.19,116.06Z" transform="translate(-14.17 -28.05)"/></svg>