<svg id="Layer_1" data-name="Layer 1" xmlns="http://www.w3.org/2000/svg" xmlns:xlink="http://www.w3.org/1999/xlink" viewBox="0 0 311.81 37.96"><defs><style>.cls-1{fill:url(#New_Gradient_Swatch_2);}.cls-2{fill:#231f20;}</style><linearGradient id="New_Gradient_Swatch_2" x1="46.56" y1="18.98" x2="205.22" y2="18.98" gradientUnits="userSpaceOnUse"><stop offset="0.1" stop-color="#46c1be"/><stop offset="0.9" stop-color="#0097d8"/></linearGradient></defs><title>mymusictaste</title><polygon class="cls-1" points="183.3 37.96 46.56 37.96 68.48 0 205.22 0 183.3 37.96"/><path class="cls-2" d="M51.68,86.91,44.52,74.55a.6.6,0,0,1,.52-.94h4.21a.65.65,0,0,1,.52.29l4.51,8.17,4.51-8.17a.58.58,0,0,1,.52-.29h4.21a.6.6,0,0,1,.52.94L56.78,86.87v8.82a.65.65,0,0,1-.62.62H52.3a.62.62,0,0,1-.62-.62Z" transform="translate(-14.17 -66.06)"/><path class="cls-2" d="M227.45,78.37h-6.16a.61.61,0,0,1-.62-.61V74.22a.61.61,0,0,1,.62-.61h16.94a.61.61,0,0,1,.62.61v3.54a.61.61,0,0,1-.62.61h-5.66V95.69a.63.63,0,0,1-.61.61h-3.89a.63.63,0,0,1-.62-.61Z" transform="translate(-14.17 -66.06)"/><path class="cls-2" d="M293.63,78.37h-6.17a.61.61,0,0,1-.61-.61V74.22a.61.61,0,0,1,.61-.61h17a.61.61,0,0,1,.61.61v3.54a.61.61,0,0,1-.61.61h-5.66V95.69a.63.63,0,0,1-.61.61h-3.9a.63.63,0,0,1-.61-.61Z" transform="translate(-14.17 -66.06)"/><path class="cls-2" d="M116.87,74.22a.62.62,0,0,1,.6-.61h3.91a.6.6,0,0,1,.6.61V87.35a3.95,3.95,0,1,0,7.89,0V74.22a.6.6,0,0,1,.6-.61h3.91a.62.62,0,0,1,.6.61V87.61a9.06,9.06,0,0,1-18.11,0Z" transform="translate(-14.17 -66.06)"/><path class="cls-2" d="M142.94,93.22l1.49-2.69a.8.8,0,0,1,1.08-.19c.13.06,2.42,1.78,4.51,1.78a2,2,0,0,0,2.2-2c0-1.36-1.12-2.4-3.28-3.27-2.73-1.1-6.16-3.28-6.16-7.17,0-3.21,2.44-6.45,7.34-6.45a11.68,11.68,0,0,1,6.8,2.43.83.83,0,0,1,.19,1l-1.62,2.5c-.22.35-.79.65-1.08.42s-2.61-2-4.55-2a1.86,1.86,0,0,0-2,1.66c0,1.2,1,2.1,3.47,3.14s6.42,3,6.42,7.39c0,3.34-2.83,6.72-7.5,6.72a10,10,0,0,1-7.16-2.5C142.78,93.81,142.68,93.68,142.94,93.22Z" transform="translate(-14.17 -66.06)"/><path class="cls-2" d="M166.16,74.22a.63.63,0,0,1,.61-.61h3.81a.63.63,0,0,1,.61.61V95.69a.63.63,0,0,1-.61.61h-3.81a.63.63,0,0,1-.61-.61Z" transform="translate(-14.17 -66.06)"/><path class="cls-2" d="M190.18,73.28a10.56,10.56,0,0,1,7.69,3,.59.59,0,0,1,0,.9l-2.48,2.63a.54.54,0,0,1-.79,0,6.5,6.5,0,1,0-4.26,11.61,6.62,6.62,0,0,0,4.26-1.56.64.64,0,0,1,.83,0l2.48,2.7a.65.65,0,0,1,0,.87,10.79,10.79,0,0,1-7.72,3.15,11.68,11.68,0,0,1,0-23.35Z" transform="translate(-14.17 -66.06)"/><path class="cls-2" d="M241.34,95.46l9.94-21.82a.65.65,0,0,1,.54-.36h.32a.63.63,0,0,1,.54.36l9.95,21.82a.57.57,0,0,1-.54.84h-3.53c-.57,0-.82-.19-1.11-.81l-1.14-2.56h-8.65l-1.14,2.59a1.19,1.19,0,0,1-1.15.78h-3.49A.57.57,0,0,1,241.34,95.46Zm13.06-6.94L252,83.17h0l-2.38,5.35Z" transform="translate(-14.17 -66.06)"/><path class="cls-2" d="M268.07,93.22l1.5-2.69a.8.8,0,0,1,1.08-.19c.12.06,2.41,1.78,4.51,1.78a2,2,0,0,0,2.19-2c0-1.36-1.11-2.4-3.27-3.27-2.73-1.1-6.17-3.28-6.17-7.17,0-3.21,2.45-6.45,7.35-6.45a11.74,11.74,0,0,1,6.8,2.43.83.83,0,0,1,.19,1l-1.62,2.5c-.22.35-.8.65-1.08.42s-2.61-2-4.55-2a1.86,1.86,0,0,0-2,1.66c0,1.2.95,2.1,3.46,3.14s6.42,3,6.42,7.39c0,3.34-2.82,6.72-7.5,6.72a10,10,0,0,1-7.15-2.5C267.91,93.81,267.82,93.68,268.07,93.22Z" transform="translate(-14.17 -66.06)"/><path class="cls-2" d="M311.62,74.22a.6.6,0,0,1,.6-.61h13.16a.6.6,0,0,1,.6.61v3.54a.6.6,0,0,1-.6.61h-8.8v4h7.24a.63.63,0,0,1,.61.62v3.53a.61.61,0,0,1-.61.62h-7.24v4.38h8.8a.6.6,0,0,1,.6.61v3.54a.6.6,0,0,1-.6.61H312.22a.6.6,0,0,1-.6-.61Z" transform="translate(-14.17 -66.06)"/><path class="cls-2" d="M17.84,73.8a.63.63,0,0,1,.59-.51H19a.7.7,0,0,1,.55.32l7.52,14h.06l7.52-14a.7.7,0,0,1,.55-.32h.52a.61.61,0,0,1,.58.51l3.67,21.78a.6.6,0,0,1-.62.72H35.48a.65.65,0,0,1-.62-.52l-1.46-10h-.06l-5.45,10.5a.75.75,0,0,1-.55.36h-.58a.68.68,0,0,1-.55-.36l-5.48-10.5h-.07l-1.42,10a.63.63,0,0,1-.62.52H14.8a.6.6,0,0,1-.62-.72Z" transform="translate(-14.17 -66.06)"/><path class="cls-2" d="M86.47,73.8a.62.62,0,0,1,.58-.51h.52a.67.67,0,0,1,.55.32l7.52,14h.07l7.52-14a.7.7,0,0,1,.55-.32h.52a.61.61,0,0,1,.58.51l3.66,21.78a.59.59,0,0,1-.61.72H104.1a.65.65,0,0,1-.61-.52l-1.46-10H102l-5.44,10.5a.75.75,0,0,1-.55.36h-.59a.7.7,0,0,1-.55-.36l-5.47-10.5h-.07l-1.42,10a.65.65,0,0,1-.62.52H83.42a.6.6,0,0,1-.61-.72Z" transform="translate(-14.17 -66.06)"/></svg>