<svg id="Layer_1" data-name="Layer 1" xmlns="http://www.w3.org/2000/svg" viewBox="0 0 311.81 45.26"><defs><style>.cls-1{fill:#231f20;}</style></defs><title>odkmedia</title><path class="cls-1" d="M176.93,85.27l6.14-10.67.44-.52a1.17,1.17,0,0,1,1-.36h2.2a.83.83,0,0,1,.61.26.82.82,0,0,1,.26.62V95.48a.89.89,0,0,1-.87.88H184a.89.89,0,0,1-.87-.88V82.84L179,90.12a2.67,2.67,0,0,1-.46.53,1,1,0,0,1-.74.27h-1.68a1.08,1.08,0,0,1-.75-.27,3,3,0,0,1-.45-.53l-4.2-7.28V95.48a.87.87,0,0,1-.26.62.85.85,0,0,1-.61.26H167.2a.85.85,0,0,1-.62-.26.87.87,0,0,1-.26-.62V74.6a.89.89,0,0,1,.88-.88h2.2a1.19,1.19,0,0,1,.95.36l.44.52Z" transform="translate(-14.17 -62.41)"/><path class="cls-1" d="M222.91,92.31a.89.89,0,0,1,.87.88v2.29a.89.89,0,0,1-.87.88H208.72a.85.85,0,0,1-.62-.26.87.87,0,0,1-.26-.62V74.6a.89.89,0,0,1,.88-.88h13.93a.87.87,0,0,1,.62.26.84.84,0,0,1,.25.62v2.29a.85.85,0,0,1-.87.87H212.21v5.15h9.73a.82.82,0,0,1,.61.25.83.83,0,0,1,.26.62v2.29a.82.82,0,0,1-.26.62.83.83,0,0,1-.61.26h-9.73v5.36Z" transform="translate(-14.17 -62.41)"/><path class="cls-1" d="M252,73.72a12.38,12.38,0,0,1,4.16.63,7.93,7.93,0,0,1,2.94,1.8A7.82,7.82,0,0,1,260.88,79a12.65,12.65,0,0,1,.76,3.69,47.63,47.63,0,0,1,0,4.78,12.65,12.65,0,0,1-.76,3.69,7.89,7.89,0,0,1-1.8,2.81,7.7,7.7,0,0,1-2.89,1.79,11.61,11.61,0,0,1-4.06.64H244a.85.85,0,0,1-.61-.26.87.87,0,0,1-.26-.62V74.6a.89.89,0,0,1,.87-.88Zm5.3,8.93a6.37,6.37,0,0,0-.4-1.93,4.45,4.45,0,0,0-1-1.55,4.54,4.54,0,0,0-1.67-1,6.81,6.81,0,0,0-2.39-.38h-4.33V92.31H252a6.41,6.41,0,0,0,2.3-.37,4.48,4.48,0,0,0,1.61-1,4.3,4.3,0,0,0,1-1.55,6.44,6.44,0,0,0,.4-1.94A42.35,42.35,0,0,0,257.27,82.65Z" transform="translate(-14.17 -62.41)"/><path class="cls-1" d="M282.19,96.36a.85.85,0,0,1-.61-.26.87.87,0,0,1-.26-.62V74.6a.89.89,0,0,1,.87-.88h2.62a.87.87,0,0,1,.62.26.84.84,0,0,1,.25.62V95.48a.86.86,0,0,1-.25.62.87.87,0,0,1-.62.26Z" transform="translate(-14.17 -62.41)"/><path class="cls-1" d="M316.8,73.72a1,1,0,0,1,.78.28,2.39,2.39,0,0,1,.45.82L326,95.26a.73.73,0,0,1,0,.22.86.86,0,0,1-.25.62.87.87,0,0,1-.62.26h-2.33a1.21,1.21,0,0,1-.9-.28,1.78,1.78,0,0,1-.36-.53L320.13,92H309.92l-1.39,3.59a1.78,1.78,0,0,1-.36.53,1.22,1.22,0,0,1-.91.28h-2.32a.85.85,0,0,1-.62-.26.87.87,0,0,1-.26-.62.51.51,0,0,1,0-.22L312,74.82a2.39,2.39,0,0,1,.45-.82,1,1,0,0,1,.78-.28Zm1.78,14.2L315,78.7l-3.55,9.22Z" transform="translate(-14.17 -62.41)"/><path class="cls-1" d="M87.08,62.41H66.77a2.31,2.31,0,0,0-2.32,2.31v40.63a2.32,2.32,0,0,0,2.32,2.32H87.08a22.63,22.63,0,1,0,0-45.26Z" transform="translate(-14.17 -62.41)"/><circle class="cls-1" cx="22.63" cy="22.63" r="22.63"/><path class="cls-1" d="M137.61,85l18.85-18.92a2.17,2.17,0,0,0-1.52-3.7H117.27a2.16,2.16,0,0,0-2.16,2.16v40.9a2.19,2.19,0,0,0,2.19,2.2h27.77l9.79,0a2.2,2.2,0,0,0,1.55-3.75Z" transform="translate(-14.17 -62.41)"/></svg>