<svg id="Layer_1" data-name="Layer 1" xmlns="http://www.w3.org/2000/svg" viewBox="0 0 323.48 71.55"><defs><style>.cls-1{fill:#fff;}.cls-2{fill:#ffc20e;}.cls-3{fill:#ed1b2f;}.cls-4{fill:#f26922;}</style></defs><title>rgp</title><path class="cls-1" d="M153.87,49.2a35.72,35.72,0,0,0-27.64,13.06,35.79,35.79,0,0,0-55.29,0,35.77,35.77,0,1,0,0,45.42,35.79,35.79,0,0,0,55.29,0A35.77,35.77,0,1,0,153.87,49.2Z" transform="translate(-7.52 -49.2)"/><path class="cls-2" d="M124.21,65a32.52,32.52,0,1,0,0,40,35.82,35.82,0,0,1,0-40Z" transform="translate(-7.52 -49.2)"/><path class="cls-3" d="M68.92,65a32.52,32.52,0,1,0,0,40,35.82,35.82,0,0,1,0-40Z" transform="translate(-7.52 -49.2)"/><path class="cls-3" d="M153.87,52.45A32.52,32.52,0,1,0,186.39,85a32.52,32.52,0,0,0-32.52-32.52" transform="translate(-7.52 -49.2)"/><path class="cls-1" d="M165.38,78.44a11.51,11.51,0,1,1-11.51-11.5,11.51,11.51,0,0,1,11.51,11.5M153.87,72a6.47,6.47,0,1,0,6.47,6.46A6.47,6.47,0,0,0,153.87,72" transform="translate(-7.52 -49.2)"/><path class="cls-1" d="M166.8,96.05h-3.9V92.87a1.32,1.32,0,0,0-1.4-1.4h-2.4a1.32,1.32,0,0,0-1.4,1.4v3.18H150V92.87a1.32,1.32,0,0,0-1.4-1.4h-2.4a1.31,1.31,0,0,0-1.39,1.4v3.18h-3.91a1.31,1.31,0,0,0-1.39,1.4V99a1.31,1.31,0,0,0,1.39,1.39H166.8A1.31,1.31,0,0,0,168.2,99V97.45A1.32,1.32,0,0,0,166.8,96.05Z" transform="translate(-7.52 -49.2)"/><path class="cls-1" d="M52.16,78.44a11.51,11.51,0,1,1-11.51-11.5,11.51,11.51,0,0,1,11.51,11.5M40.65,72a6.47,6.47,0,1,0,6.47,6.46A6.47,6.47,0,0,0,40.65,72" transform="translate(-7.52 -49.2)"/><path class="cls-1" d="M53.58,96.05h-3.9V92.87a1.32,1.32,0,0,0-1.4-1.4h-2.4a1.31,1.31,0,0,0-1.39,1.4v3.18H36.81V92.87a1.31,1.31,0,0,0-1.39-1.4H33a1.32,1.32,0,0,0-1.4,1.4v3.18h-3.9a1.32,1.32,0,0,0-1.4,1.4V99a1.31,1.31,0,0,0,1.4,1.39H53.58A1.31,1.31,0,0,0,55,99V97.45A1.32,1.32,0,0,0,53.58,96.05Z" transform="translate(-7.52 -49.2)"/><rect class="cls-1" x="97.22" y="19.36" width="5.24" height="32.47" rx="1.4" ry="1.4"/><path class="cls-1" d="M93.69,70.19H82.75a1.32,1.32,0,0,0-1.4,1.4v1.62a1.32,1.32,0,0,0,1.4,1.4h8.3c.69,0,.94.25.94.94v5.78c0,3.53-.31,4.13-3.08,6.06-1.35.94-4.82,3.11-6.63,4.23a1.33,1.33,0,0,0-.39,1.89h0L83,95.35A1.35,1.35,0,0,0,85,95.8h0c1.74-1.1,4.94-3.12,6.34-4.07,4.9-3.37,5.83-5.17,5.83-9.37v-8.8C97.14,71,96.29,70.19,93.69,70.19Z" transform="translate(-7.52 -49.2)"/><path class="cls-4" d="M309.47,90.34c-6.82,0-11.77,4.33-11.77,10.3S302.76,111,309.47,111s11.62-4.36,11.62-10.35S316.2,90.34,309.47,90.34Zm0,15.23c-3.33,0-5.65-2-5.65-4.93s2.43-4.89,5.65-4.89S315,97.9,315,100.64C315,103.54,312.74,105.57,309.47,105.57Z" transform="translate(-7.52 -49.2)"/><path class="cls-4" d="M312.59,81h13v-5.3H302c-1.46,0-1.82-.4-1.82-2v-.75H324.5V68.13H300.13V65.9H324.5V61.14H293.75V73.43a7.59,7.59,0,0,0,2,5.42,7.29,7.29,0,0,0,5.41,2.1h5.61v2.82H287.9v1.94a2.74,2.74,0,0,0,.79,2,3.1,3.1,0,0,0,2.21.87H331V83.77H312.59Z" transform="translate(-7.52 -49.2)"/><path class="cls-4" d="M259.58,106.32v-1h22.36V92.43H253.35v2.11a3.29,3.29,0,0,0,3.13,3.2h19.07v2.82h-22.2v7.83c0,2.1.64,3.44,2,4.2a11.54,11.54,0,0,0,5.26.85h21.84v-5.3H261.59C260.31,108.14,259.58,108.06,259.58,106.32Z" transform="translate(-7.52 -49.2)"/><path class="cls-4" d="M253.23,80.83V72.28h15.71V67H246.85V81.61c0,2.68.63,4.5,1.92,5.58,1.12.93,2.71,1.34,5.17,1.34h17.17v-5.3H254.93C253.47,83.23,253.23,82.89,253.23,80.83Z" transform="translate(-7.52 -49.2)"/><path class="cls-4" d="M277.83,90.7h4.11V79.86h5.95v-5.3h-5.95V65.9h-6.39V88.1A2.49,2.49,0,0,0,277.83,90.7Z" transform="translate(-7.52 -49.2)"/><path class="cls-4" d="M231.14,65.9h-6.38v34.59a2.28,2.28,0,0,0,2.48,2.12h3.9V83.23h3.91v17.26a2.22,2.22,0,0,0,2.42,2.12h4V65.9h-6.38v12h-3.91Z" transform="translate(-7.52 -49.2)"/><path class="cls-4" d="M208.12,67h-6.39V90.61a7,7,0,0,0,1.16,4.09,6.51,6.51,0,0,0,2.55,2.12,9.89,9.89,0,0,0,3.72.92h12.29V67h-6.39v11h-6.94Zm6.94,16.25v9.22H210.3a2.15,2.15,0,0,1-2.18-2.17v-7Z" transform="translate(-7.52 -49.2)"/></svg>