<svg id="Layer_1" data-name="Layer 1" xmlns="http://www.w3.org/2000/svg" viewBox="0 0 311.81 76.48"><defs><style>.cls-1{fill:#0580c4;}</style></defs><title>ridi</title><path class="cls-1" d="M324.6,105.22h-121a101.8,101.8,0,0,0-19.09,1.45,28.44,28.44,0,0,0-14.09,6.67l-.36.32-.35-.32a28.61,28.61,0,0,0-14.09-6.67c-7-1.29-19-1.45-19.06-1.46H15.66c-1.08,0-1.49.41-1.49,1.49v5c0,1.05.39,1.46,1.4,1.48H137.41c2.68,0,11.81.09,16.83,1.28a22.12,22.12,0,0,1,12.94,8.81H173a22.12,22.12,0,0,1,12.94-8.81c4.87-1.16,13.9-1.28,17.55-1.28h121c1.08,0,1.48-.4,1.48-1.48v-5c0-1-.38-1.45-1.38-1.47" transform="translate(-14.17 -46.8)"/><path class="cls-1" d="M95.78,80.3c-1.18,1.84-3.23,2.77-6.09,2.77H87.22V57.8h2.33c2.86,0,4.93.93,6.15,2.76s1.74,5,1.74,9.88-.55,8.11-1.66,9.86m9-27.64c-3.06-3.4-8.08-5.12-14.9-5.12h-13c-1.08,0-1.49.4-1.49,1.48V91.85c0,1.08.41,1.49,1.49,1.49H90c6.78,0,11.76-1.73,14.8-5.13s4.62-9.4,4.62-17.77-1.56-14.35-4.65-17.78" transform="translate(-14.17 -46.8)"/><path class="cls-1" d="M291.62,91.69,280.1,68.39l-.12-.26.14-.24L291,49.16a1.31,1.31,0,0,0,.2-1.23c-.06-.13-.17-.39-.85-.39h-9.37a2.69,2.69,0,0,0-2.45,1.66L270.3,63.81l-1,1.76V49c0-1.08-.4-1.48-1.48-1.48h-8.9c-1.09,0-1.49.4-1.49,1.48V91.85c0,1.08.4,1.49,1.49,1.49h8.9c1.08,0,1.48-.41,1.48-1.49V71.16l1,2.1,8.8,18.45a2.48,2.48,0,0,0,2.37,1.63h9.43c.62,0,.8-.21.89-.42a1.25,1.25,0,0,0-.18-1.23" transform="translate(-14.17 -46.8)"/><path class="cls-1" d="M325,75.57a9.51,9.51,0,0,0-2.38-3.73,24,24,0,0,0-3.33-2.79c-1.06-.71-2.65-1.63-4.72-2.73-4.25-2.16-6.24-4.15-6.24-6.26a2.77,2.77,0,0,1,1.51-2.71,8.43,8.43,0,0,1,3.7-.62,23.65,23.65,0,0,1,7.19,1,3.12,3.12,0,0,0,.81.12c.53,0,.9-.18,1.06-1l1.14-6.28c.1-.61.05-1.39-1.27-2a28.43,28.43,0,0,0-10.67-1.74c-5.37,0-9.37,1-11.89,3s-3.72,5.25-3.72,9.75a17.51,17.51,0,0,0,.86,5.7,10.68,10.68,0,0,0,2.53,4.12A22,22,0,0,0,303,72.32a35.37,35.37,0,0,0,4.2,2.29,32.18,32.18,0,0,1,4.9,3,3.7,3.7,0,0,1,1.49,2.88c0,2.44-2.29,3.67-6.81,3.67A21.45,21.45,0,0,1,299,82.75a3,3,0,0,0-.95-.21c-.27,0-.72,0-.93,1.09L295.93,90c-.18.79-.05,1.06,0,1.15a3.06,3.06,0,0,0,1.3.78A34,34,0,0,0,309.81,94a19,19,0,0,0,11.48-3.29c2.91-2.13,4.39-5.51,4.39-10a16.13,16.13,0,0,0-.73-5.11" transform="translate(-14.17 -46.8)"/><path class="cls-1" d="M237.7,80.86a4.86,4.86,0,0,1-4.7,3.08,4.79,4.79,0,0,1-4.67-3.08c-.8-1.84-1.21-5.34-1.21-10.42s.41-8.59,1.21-10.43A4.81,4.81,0,0,1,233,56.93,4.86,4.86,0,0,1,237.7,60c.83,1.83,1.24,5.34,1.24,10.43s-.41,8.59-1.24,10.42m12-21.9a17.1,17.1,0,0,0-3.54-7.24,13.33,13.33,0,0,0-5.5-3.76,26.1,26.1,0,0,0-15.39,0,13.46,13.46,0,0,0-5.5,3.76A17.33,17.33,0,0,0,216.27,59a46.44,46.44,0,0,0-1.22,11.48,46.44,46.44,0,0,0,1.22,11.48,17.35,17.35,0,0,0,3.53,7.23,13.46,13.46,0,0,0,5.5,3.76,26.1,26.1,0,0,0,15.39,0,13.33,13.33,0,0,0,5.5-3.76,17.12,17.12,0,0,0,3.54-7.23A46.56,46.56,0,0,0,251,70.44,46.5,46.5,0,0,0,249.73,59" transform="translate(-14.17 -46.8)"/><path class="cls-1" d="M66.2,47.54H57.3c-1.09,0-1.49.4-1.49,1.48V91.85c0,1.08.4,1.49,1.49,1.49h8.9c1.08,0,1.48-.41,1.48-1.49V49c0-1.08-.4-1.48-1.48-1.48" transform="translate(-14.17 -46.8)"/><path class="cls-1" d="M126.85,47.54H118c-1.08,0-1.49.4-1.49,1.48V91.85c0,1.08.41,1.49,1.49,1.49h8.9c1.08,0,1.48-.41,1.48-1.49V49c0-1.08-.4-1.48-1.48-1.48" transform="translate(-14.17 -46.8)"/><path class="cls-1" d="M197.34,80.86a4.86,4.86,0,0,1-4.7,3.08A4.78,4.78,0,0,1,188,80.86c-.8-1.84-1.21-5.34-1.21-10.42S187.17,61.85,188,60a4.8,4.8,0,0,1,4.67-3.08,4.86,4.86,0,0,1,4.7,3.08c.83,1.83,1.24,5.34,1.24,10.43s-.41,8.59-1.24,10.42m12-21.9a17.22,17.22,0,0,0-3.54-7.24,13.33,13.33,0,0,0-5.5-3.76,26.1,26.1,0,0,0-15.39,0,13.46,13.46,0,0,0-5.5,3.76A17.22,17.22,0,0,0,175.9,59a47,47,0,0,0-1.21,11.48,47,47,0,0,0,1.21,11.48,17.24,17.24,0,0,0,3.54,7.23,13.46,13.46,0,0,0,5.5,3.76,26.1,26.1,0,0,0,15.39,0,13.33,13.33,0,0,0,5.5-3.76,17.24,17.24,0,0,0,3.54-7.23,46.56,46.56,0,0,0,1.22-11.48A46.5,46.5,0,0,0,209.37,59" transform="translate(-14.17 -46.8)"/><path class="cls-1" d="M156.87,83c-.79.81-2.11,1.21-4.05,1.21h-5.34V74.06h5.27a5.63,5.63,0,0,1,4,1.23A5.15,5.15,0,0,1,158,79.14,5.45,5.45,0,0,1,156.87,83m-9.39-17.79V56.66h4.74a5.25,5.25,0,0,1,3.65,1.05A4.51,4.51,0,0,1,157,61.13a4.69,4.69,0,0,1-1.17,3.49,5.26,5.26,0,0,1-3.7,1.12h-4.67ZM168,73.05a9.07,9.07,0,0,0-4.59-3.61l-.63-.22-1.25-.43,1.21-.55.61-.26c3.46-1.55,5.22-4.6,5.22-9.05,0-4.29-1.24-7.28-3.69-8.88s-6.68-2.51-12.25-2.51H137.36c-1.08,0-1.48.4-1.48,1.48V91.85c0,1.08.4,1.49,1.48,1.49h16.33c10.82,0,16.07-4.39,16.07-13.4A12.21,12.21,0,0,0,168,73.05" transform="translate(-14.17 -46.8)"/><path class="cls-1" d="M35.59,68.51c-.86,1-2.39,1.51-4.54,1.51H27V57.53h4.07c2.17,0,3.65.47,4.53,1.43s1.28,2.53,1.28,4.85-.42,3.72-1.27,4.7m5.67,9.62L41,77.64l.49-.24.25-.11c4.72-2.26,7.11-6.79,7.11-13.48,0-6-1.38-10.28-4.11-12.65s-7.33-3.62-13.57-3.62H16.66c-1.08,0-1.49.4-1.49,1.48V91.85c0,1.08.41,1.49,1.49,1.49h8.83c1.08,0,1.49-.41,1.49-1.49V79.35h3.29l.15.3,5.89,12.26a2.46,2.46,0,0,0,2.43,1.43h9c.76,0,.87-.27.92-.37a1.51,1.51,0,0,0-.21-1.28Z" transform="translate(-14.17 -46.8)"/></svg>