<svg xmlns="http://www.w3.org/2000/svg" xmlns:xlink="http://www.w3.org/1999/xlink" viewBox="0 0 311.81 67.21"><defs><style>.cls-1{isolation:isolate;}.cls-2{fill:#645da9;}.cls-3{fill:url(#linear-gradient);}.cls-4{opacity:0.3;mix-blend-mode:color-burn;}.cls-5{fill:url(#linear-gradient-2);}.cls-6{fill:url(#linear-gradient-3);}.cls-7{fill:url(#linear-gradient-4);}</style><linearGradient id="linear-gradient" x1="35.81" y1="69.7" x2="35.81" y2="119.96" gradientUnits="userSpaceOnUse"><stop offset="0" stop-color="#675ca8"/><stop offset="0.52" stop-color="#7774b6"/><stop offset="0.99" stop-color="#828dc6"/></linearGradient><linearGradient id="linear-gradient-2" x1="15.67" y1="46.89" x2="15.67" y2="46.89" gradientUnits="userSpaceOnUse"><stop offset="0" stop-color="#4d52a3"/><stop offset="1" stop-color="#4d52a3" stop-opacity="0"/></linearGradient><linearGradient id="linear-gradient-3" x1="62.23" y1="81.49" x2="52.33" y2="92.11" gradientUnits="userSpaceOnUse"><stop offset="0" stop-color="#fff"/><stop offset="1" stop-color="#b8b5da"/></linearGradient><linearGradient id="linear-gradient-4" x1="33.89" y1="49.98" x2="49.07" y2="83.66" gradientUnits="userSpaceOnUse"><stop offset="0" stop-color="#695fa9"/><stop offset="1" stop-color="#5954a4"/></linearGradient></defs><title>sendbird</title><g class="cls-1"><g id="Layer_1" data-name="Layer 1"><path class="cls-2" d="M105.43,80.56l-.24-.09c-3.2-1.08-6.82-2.31-6.82-5.2,0-2.71,2.25-4.46,5.73-4.46a12.86,12.86,0,0,1,7.13,2.49,1.89,1.89,0,0,0,1.12.36,2,2,0,0,0,1.51-.71L116,70.37a2,2,0,0,0,.41-1.53,1.91,1.91,0,0,0-.86-1.34A20.77,20.77,0,0,0,103.7,64a14.82,14.82,0,0,0-9.14,2.84,10.79,10.79,0,0,0-4,8.83c0,7.24,5.91,10,11.44,12l.06,0c4.17,1.48,8.11,2.89,8.11,6.55,0,4.19-3.72,5.68-6.9,5.68-3.47,0-5.93-1.06-9.1-3.89a2,2,0,0,0-1.3-.5,1.92,1.92,0,0,0-1.34.54L89,98.46a2,2,0,0,0-.6,1.44,2,2,0,0,0,.67,1.43,20.37,20.37,0,0,0,14.15,5.38c7.33,0,15.21-4,15.21-12.94S110.59,82.31,105.43,80.56Z" transform="translate(-14.17 -51.43)"/><path class="cls-2" d="M137.36,74.72a15,15,0,0,0-11,4.66A16.59,16.59,0,0,0,122,90.92a16.22,16.22,0,0,0,4.16,11.29,15,15,0,0,0,11.23,4.5c5.52,0,9.42-1.83,12.66-5.93a1.93,1.93,0,0,0,.39-1.49,2,2,0,0,0-.84-1.31l-2-1.36a2,2,0,0,0-1.08-.33,1.93,1.93,0,0,0-1.54.76,8.35,8.35,0,0,1-7.16,3.27A7.64,7.64,0,0,1,132.14,98a9.38,9.38,0,0,1-2.4-5.23h20A1.94,1.94,0,0,0,151.71,91c.07-.74.1-1.47.1-2.1a14.12,14.12,0,0,0-4.11-10.19A14.58,14.58,0,0,0,137.36,74.72ZM130.2,87.11c1.45-5.31,5.2-6.12,7.33-6.12A6.41,6.41,0,0,1,144,87.11Z" transform="translate(-14.17 -51.43)"/><path class="cls-2" d="M173.07,74.72a11.77,11.77,0,0,0-9.29,4.58l-.17-2.09a2,2,0,0,0-1.94-1.79h-3.26a1.94,1.94,0,0,0-1.94,1.94v26.71a1.94,1.94,0,0,0,1.94,1.94h3.78a1.94,1.94,0,0,0,1.94-1.94V85.89a9,9,0,0,1,7.14-4.37c2,0,3.45.69,4.27,2.11,1,1.74,1.12,4.41,1.12,7v13.44A1.94,1.94,0,0,0,178.6,106h3.78a2,2,0,0,0,2-1.94v-14c0-3.86-.33-8.24-2.74-11.42A10.4,10.4,0,0,0,173.07,74.72Z" transform="translate(-14.17 -51.43)"/><path class="cls-2" d="M217.72,64h-3.84a2,2,0,0,0-1.95,2V78.05a12.86,12.86,0,0,0-8.64-3.33,14.1,14.1,0,0,0-10.71,4.83,16.64,16.64,0,0,0-4.1,11.08A16.92,16.92,0,0,0,192.65,102a14,14,0,0,0,10.52,4.71,11.59,11.59,0,0,0,9.13-4l.14,1.53a1.93,1.93,0,0,0,1.94,1.76h3.34a1.94,1.94,0,0,0,1.94-1.94V66A2,2,0,0,0,217.72,64Zm-5.79,21.07V95.5a8.38,8.38,0,0,1-7.42,4.42c-5.35,0-8.24-4.7-8.24-9.12a10.41,10.41,0,0,1,2.06-6.33,7.72,7.72,0,0,1,6.29-3A9.31,9.31,0,0,1,211.93,85.09Z" transform="translate(-14.17 -51.43)"/><path class="cls-2" d="M249.44,84.31a8.53,8.53,0,0,0,5.05-8,10.33,10.33,0,0,0-4.74-9c-3.34-2.16-7.88-2.62-11.11-2.62H230A2,2,0,0,0,228,66.6v37.47A2,2,0,0,0,230,106h8.14c4.61,0,8.15-.54,10.83-1.65a11.23,11.23,0,0,0,7.24-10.53,9.92,9.92,0,0,0-2-6.09A10.82,10.82,0,0,0,249.44,84.31Zm-13.57-2.67V71.45h1.78c2.8,0,5.46.09,7.16,1.23a4.28,4.28,0,0,1,1.83,4c0,3.31-2.73,5-8.12,5Zm12.06,12.25a4.31,4.31,0,0,1-2.56,4.31c-2,.94-4.74,1-7.37,1h-2.13V88.15H241C245.41,88.15,247.93,90.24,247.93,93.89Z" transform="translate(-14.17 -51.43)"/><rect class="cls-2" x="247.06" y="23.98" width="7.67" height="30.6" rx="1.94" ry="1.94"/><rect class="cls-2" x="247.06" y="12.52" width="7.67" height="7.2" rx="1.94" ry="1.94"/><path class="cls-2" d="M293.87,75.68a1.92,1.92,0,0,0-1.32-.83,12.92,12.92,0,0,0-1.93-.13c-2.67,0-5,1.45-7,4.32l-.15-1.84a2,2,0,0,0-1.94-1.78h-3.33a1.94,1.94,0,0,0-1.94,1.94v26.71a1.94,1.94,0,0,0,1.94,1.94H282a1.94,1.94,0,0,0,1.94-1.94V85.59a6.78,6.78,0,0,1,5.86-3.78,6.71,6.71,0,0,1,1.32.11,2.22,2.22,0,0,0,.37,0,1.93,1.93,0,0,0,1.88-1.49l.78-3.23A2,2,0,0,0,293.87,75.68Z" transform="translate(-14.17 -51.43)"/><path class="cls-2" d="M324,64H320.2a2,2,0,0,0-1.94,2V78.05a12.91,12.91,0,0,0-8.65-3.33,14.11,14.11,0,0,0-10.71,4.83,16.64,16.64,0,0,0-4.09,11.08A17,17,0,0,0,299,102a14,14,0,0,0,10.52,4.71,11.56,11.56,0,0,0,9.13-4l.14,1.53A2,2,0,0,0,320.7,106H324a1.94,1.94,0,0,0,1.94-1.94V66A2,2,0,0,0,324,64Zm-13.21,35.9c-5.35,0-8.24-4.7-8.24-9.12a10.35,10.35,0,0,1,2.07-6.33,7.69,7.69,0,0,1,6.29-3,9.32,9.32,0,0,1,7.31,3.57V95.5A8.39,8.39,0,0,1,310.83,99.92Z" transform="translate(-14.17 -51.43)"/><path class="cls-3" d="M43.57,86.65h0L22.26,69l-.14-.12a2.82,2.82,0,0,0-4.23.9,3.49,3.49,0,0,0-.15.34,19.64,19.64,0,0,0,4.82,22.16h0l7.29,6-14.59,12.4-.15.13a2.85,2.85,0,0,0,.13,4.34l.3.21a19.39,19.39,0,0,0,22.54-.8h0L57.45,98.14Z" transform="translate(-14.17 -51.43)"/><g class="cls-4"><line class="cls-5" x1="15.67" y1="46.89" x2="15.67" y2="46.89"/></g><path class="cls-6" d="M53,79.56a12.16,12.16,0,0,0-3.16,1.89h0l-6.26,5.23L57.45,98.15,71.36,86.52l-6.29-5.26a12.27,12.27,0,0,0-12-1.7" transform="translate(-14.17 -51.43)"/><path class="cls-2" d="M65.08,81.28c.25.22.8.78,1,1l.18.19a.94.94,0,0,0,.1.1l.2.24a6,6,0,0,1-.72,8.28l5.49-4.59Z" transform="translate(-14.17 -51.43)"/><path class="cls-7" d="M44.65,85.79l5.2-4.35h0A12.16,12.16,0,0,1,53,79.56h0a11.92,11.92,0,0,1,4.48-.87,13.47,13.47,0,0,1,7.57,2.57L29.51,52a2.8,2.8,0,0,0-1.68-.56A2.85,2.85,0,0,0,25.32,53c-.05.1-.1.21-.14.31a19.74,19.74,0,0,0-1.54,7.65c0,.58,0,1.15.08,1.72a19.54,19.54,0,0,0,6.74,13.15L43.59,86.66Z" transform="translate(-14.17 -51.43)"/></g></g></svg>