<svg id="Layer_1" data-name="Layer 1" xmlns="http://www.w3.org/2000/svg" viewBox="0 0 283.46 77.97"><defs><style>.cls-1{fill:#007ac1;}</style></defs><title>spoqa</title><path id="a" class="cls-1" d="M287.34,46.06c-6.49,0-14.79,2.43-18.71,4.68v13c5.37-3.37,12.52-5.9,17.25-6h.74c10.48,0,11.37,4.42,11.37,8.26v2.39s-10.22-.28-12.53-.28c-13.43,0-22,5.37-22.71,16.68-.69,10.36,6.6,18,18.78,18,6.64,0,12.65-1.78,16.46-4.85l.18,4.26h13.64V66.2c0-13.08-7.05-20.14-24.47-20.14m-1.86,45.22c-4,0-9.23-.55-9.51-5.61-.32-5.54,4.64-8.29,11.92-8.29,7.73,0,10.1,0,10.1,0V87c-3.27,2.75-8.51,4.25-12.51,4.25" transform="translate(-28.35 -46.06)"/><path id="q" class="cls-1" d="M226.6,46.51c-14.26,0-24.23,11.57-24.23,28.09s10,28.09,24.23,28.09a21.89,21.89,0,0,0,13.62-5V124h13.83V47.79h-13.5l-.33,3.65a22.36,22.36,0,0,0-13.62-4.93m3,44.38c-7.82,0-13.18-6.64-13.18-16.29s5.36-16.3,13.18-16.3a14.75,14.75,0,0,1,10.62,4.83V86.07a14.77,14.77,0,0,1-10.62,4.82" transform="translate(-28.35 -46.06)"/><path id="o" class="cls-1" d="M168,46.09c-16.34,0-27.91,11.8-27.91,28.62s11.57,28.61,27.91,28.61,27.81-11.9,27.81-28.61S184.33,46.09,168,46.09m0,45.55c-8.11,0-13.74-6.88-13.74-16.93S159.88,57.78,168,57.78s13.64,6.88,13.64,16.93S176,91.64,168,91.64" transform="translate(-28.35 -46.06)"/><path id="p" class="cls-1" d="M109.27,46.51a22.82,22.82,0,0,0-13.61,4.93l-.31-3.65H81.93V124H95.66V97.65a22.34,22.34,0,0,0,13.61,5c14.37,0,24.23-11.58,24.23-28.09s-9.86-28.09-24.23-28.09m-2.89,44.38a15.18,15.18,0,0,1-10.72-4.82V63.13a15.15,15.15,0,0,1,10.72-4.83c7.72,0,13.08,6.65,13.08,16.3s-5.36,16.29-13.08,16.29" transform="translate(-28.35 -46.06)"/><path id="s" class="cls-1" d="M53.73,69.57c-5.79-1.47-10.42-2.39-10.42-6.67,0-3,3.13-4.78,8.08-4.78a35.13,35.13,0,0,1,17.66,5.43l.72.48V50.92l-.22-.14c-3.87-2.3-12-4.69-18.86-4.69-13.91,0-22.22,6.35-22.22,17,0,11.33,10.72,14.22,19.33,16.46,6,1.54,11,2.06,10.84,6.41s-4.9,5.4-11,4.67a39.3,39.3,0,0,1-18.59-7L28.35,83V97.32l.18.13c3.95,2.81,12.86,5.8,20.18,5.8,16.44,0,24.87-5.7,24.87-17.38s-11-14.07-19.85-16.3" transform="translate(-28.35 -46.06)"/></svg>