<svg xmlns="http://www.w3.org/2000/svg" viewBox="0 0 311.81 86.46"><defs><style>.cls-1{isolation:isolate;}.cls-2{fill:#414142;}.cls-3{fill:#fed401;}.cls-3,.cls-4,.cls-5{mix-blend-mode:multiply;}.cls-4{fill:#9fcb3c;}.cls-5{fill:#15bff1;}</style></defs><title>startlink</title><g class="cls-1"><g id="Layer_1" data-name="Layer 1"><path class="cls-2" d="M14.86,110.13a2.24,2.24,0,0,1,1.72-.63H40.15c3.51,0,5.53-.31,6-.93a4.23,4.23,0,0,0,2.2-3.6c0-1.78-1.08-3.14-3.22-4.06-.45-.28-2.12-.41-5-.41H24.3q-7.52,0-9.82-7a12.36,12.36,0,0,1-.31-2.76v-.1A9.32,9.32,0,0,1,20,81.57a10.64,10.64,0,0,1,3.89-.66H53.71a2.32,2.32,0,0,1,1.61.59A2.22,2.22,0,0,1,56,83.21v2.61a2.4,2.4,0,0,1-.57,1.63,2,2,0,0,1-1.68.67H28q-4.65,0-5.16,1a2,2,0,0,0-.72,1.64c0,1.29.95,2.09,2.86,2.4a26.21,26.21,0,0,0,3.43.15h16q7.41,0,10.69,6.81a12.12,12.12,0,0,1,.92,4.8v.16a11.32,11.32,0,0,1-5.73,10.23,11.49,11.49,0,0,1-5.68,1.43h-28a2.38,2.38,0,0,1-1.67-.59,2.19,2.19,0,0,1-.64-1.7v-2.64A2.37,2.37,0,0,1,14.86,110.13Z" transform="translate(-14.17 -30.25)"/><path class="cls-2" d="M42.85,81.55a2.21,2.21,0,0,1,1.72-.64h37a2.38,2.38,0,0,1,1.67.59,2.22,2.22,0,0,1,.64,1.71v2.61a2.37,2.37,0,0,1-.59,1.63,2.17,2.17,0,0,1-1.72.67H71.26c-2.42,0-3.78.46-4.09,1.38a3.11,3.11,0,0,0-.36,1.23,18.26,18.26,0,0,0-.1,2v21.69a2.37,2.37,0,0,1-.59,1.63,2.14,2.14,0,0,1-1.71.67H61.75a2.43,2.43,0,0,1-1.66-.56,2.2,2.2,0,0,1-.64-1.74V92.72c0-2.42-.44-3.78-1.33-4.09a6.83,6.83,0,0,0-3.22-.51H44.57a2.39,2.39,0,0,1-1.64-.59,2.16,2.16,0,0,1-.66-1.71V83.21A2.35,2.35,0,0,1,42.85,81.55Z" transform="translate(-14.17 -30.25)"/><path class="cls-2" d="M113.38,81.55a2.19,2.19,0,0,1,1.71-.64H144.7q6.7,0,9.26,6.44a10.9,10.9,0,0,1,.46,3.17v.36q0,6.5-6.39,9.1a11.71,11.71,0,0,1-2.58.44c-1.25.12-2.91.18-5,.18-1.4.2-2.1.65-2.1,1.33v.1q0,1.34,3,3.43l11,9.25a1.66,1.66,0,0,1,.4,1.13q0,.87-1.89.87H144.6q-2.29,0-4.86-2.41-14.52-12-14.88-12.42a4.83,4.83,0,0,1-1.48-3.79V95.94c0-1.77.78-2.66,2.35-2.66H140.2c3.21,0,5-.28,5.42-.86a2,2,0,0,0,.87-1.74,2.31,2.31,0,0,0-1.89-2.25,13.49,13.49,0,0,0-4-.31h-16c-2.42,0-3.78.46-4.09,1.38a4.1,4.1,0,0,0-.41,1.74q0,8.74,0,14.52v8.85a2,2,0,0,1-.61,1.46,2.22,2.22,0,0,1-1.69.64h-2.66a2.37,2.37,0,0,1-1.66-.59,2.19,2.19,0,0,1-.64-1.71V83.21A2.36,2.36,0,0,1,113.38,81.55Z" transform="translate(-14.17 -30.25)"/><path class="cls-2" d="M154.91,81.55a2.19,2.19,0,0,1,1.71-.64h37a2.37,2.37,0,0,1,1.66.59,2.19,2.19,0,0,1,.64,1.71v2.61a2.37,2.37,0,0,1-.59,1.63,2.14,2.14,0,0,1-1.71.67H183.32c-2.42,0-3.79.46-4.1,1.38a3.12,3.12,0,0,0-.35,1.23,15.82,15.82,0,0,0-.11,2v21.69a2.36,2.36,0,0,1-.58,1.63,2.17,2.17,0,0,1-1.72.67H173.8a2.45,2.45,0,0,1-1.66-.56,2.24,2.24,0,0,1-.64-1.74V92.72c0-2.42-.44-3.78-1.33-4.09a6.8,6.8,0,0,0-3.22-.51H156.62a2.41,2.41,0,0,1-1.64-.59,2.16,2.16,0,0,1-.66-1.71V83.21A2.31,2.31,0,0,1,154.91,81.55Z" transform="translate(-14.17 -30.25)"/><path class="cls-2" d="M197.18,81.55a2.19,2.19,0,0,1,1.71-.64h2.61c1.57,0,2.35.94,2.35,2.82V94.64c0,4.37.28,6.93.82,7.68a11.6,11.6,0,0,0,5.52,6q2,1.19,7.57,1.18h18.16a2.4,2.4,0,0,1,1.64.58,2.16,2.16,0,0,1,.66,1.7v2.64a2.37,2.37,0,0,1-.59,1.63,2.16,2.16,0,0,1-1.71.66H214a17.33,17.33,0,0,1-17.39-17.39V83.21A2.36,2.36,0,0,1,197.18,81.55Z" transform="translate(-14.17 -30.25)"/><path class="cls-2" d="M241.26,81.55a2.23,2.23,0,0,1,1.72-.64h2.61a2.32,2.32,0,0,1,1.61.59,2.22,2.22,0,0,1,.64,1.71v31.2a2.4,2.4,0,0,1-.57,1.63,2,2,0,0,1-1.68.67H243a2.38,2.38,0,0,1-1.67-.59,2.22,2.22,0,0,1-.63-1.71V83.21A2.35,2.35,0,0,1,241.26,81.55Z" transform="translate(-14.17 -30.25)"/><path class="cls-2" d="M250.88,81.55a2.19,2.19,0,0,1,1.71-.64h3.27a5.49,5.49,0,0,1,4,1.84q10.29,9.77,15.65,14.83c3.58,3.38,5.58,5.25,6,5.63a4,4,0,0,0,1.69.66q1.53,0,1.53-4V83.21a2.49,2.49,0,0,1,.56-1.64,2.11,2.11,0,0,1,1.69-.66h2.61a2.37,2.37,0,0,1,1.66.59,2.19,2.19,0,0,1,.64,1.71v31.2a2.37,2.37,0,0,1-.59,1.63,2.14,2.14,0,0,1-1.71.67H286.5a6.3,6.3,0,0,1-4.81-2.61l-21-19.84a3.65,3.65,0,0,0-1.58-.57c-1,0-1.54,1.32-1.54,3.94v16.78A2.32,2.32,0,0,1,257,116a2.14,2.14,0,0,1-1.71.67h-2.66a2.37,2.37,0,0,1-1.66-.59,2.19,2.19,0,0,1-.64-1.71V83.21A2.36,2.36,0,0,1,250.88,81.55Z" transform="translate(-14.17 -30.25)"/><path class="cls-2" d="M324.6,81.42a1.2,1.2,0,0,1,1,.49,1.92,1.92,0,0,1,.38,1.25V87c0,1.61-1.14,2.78-3.42,3.53q-7.06,3.08-10.82,4.79c-2.5,1.14-3.93,1.79-4.27,2a2.21,2.21,0,0,0-1,1.59c0,1,1.43,2,4.29,3q6.24,2.76,9.64,4.29l4.07,1.84a3.1,3.1,0,0,1,1.53,2.66v3.84a1.63,1.63,0,0,1-1.33,1.79h-.1q-.76,0-6-2.56-10.23-4.69-15.73-7.29t-6.47-3.09a3.56,3.56,0,0,1-1.33-3.07V97.38a3.49,3.49,0,0,1,2.1-3.53q13.1-6.09,19.77-9.16c4.45-2,6.82-3.12,7.13-3.22A2.75,2.75,0,0,1,324.6,81.42Z" transform="translate(-14.17 -30.25)"/><path class="cls-2" d="M109.83,111.88c-.74-2.07-9.39-21.66-12.62-28.95a3.47,3.47,0,0,0-3.19-2H89.88A3.23,3.23,0,0,0,87,82.44c-.16.33-.37.74-.62,1.23-3.44,7.79-11.57,26.21-12.29,28.21-.92,2.56-1.94,4.83.17,4.83h7.9a1.51,1.51,0,0,0,1.6-1.28l0-.14,2.49-6.88a2.22,2.22,0,0,0-.75-2.3l-5.78-4.3c-.65-.49-.52-.9.3-.91l7.2-.08a2.25,2.25,0,0,0,2-1.42l2.31-6.83c.26-.78.68-.78,1,0l2.3,6.83a2.25,2.25,0,0,0,2,1.42l7.2.08c.82,0,1,.42.3.91l-5.78,4.3a2.22,2.22,0,0,0-.75,2.3l2.15,6.88c.28.91.7,1.42,1.67,1.42h8.18C111.77,116.71,110.75,114.44,109.83,111.88Z" transform="translate(-14.17 -30.25)"/><path class="cls-3" d="M244.64,80.27A10.31,10.31,0,1,1,255,70,10.32,10.32,0,0,1,244.64,80.27Zm0-17.65A7.34,7.34,0,1,0,252,70,7.34,7.34,0,0,0,244.64,62.62Z" transform="translate(-14.17 -30.25)"/><path class="cls-4" d="M255.73,72.94a11.81,11.81,0,1,1,11.81-11.81A11.82,11.82,0,0,1,255.73,72.94Zm0-20.64a8.83,8.83,0,1,0,8.83,8.83A8.84,8.84,0,0,0,255.73,52.3Z" transform="translate(-14.17 -30.25)"/><path class="cls-5" d="M248.4,58.41a14.08,14.08,0,1,1,14.08-14.08A14.1,14.1,0,0,1,248.4,58.41Zm0-25.18a11.1,11.1,0,1,0,11.1,11.1A11.11,11.11,0,0,0,248.4,33.23Z" transform="translate(-14.17 -30.25)"/></g></g></svg>