<svg id="Layer_1" data-name="Layer 1" xmlns="http://www.w3.org/2000/svg" viewBox="0 0 1146.66 403.86"><defs><style>.cls-1,.cls-2{fill:#fff;}.cls-1{stroke:#fff;stroke-miterlimit:10;stroke-width:0.5px;}</style></defs><title>pyconkr-2018-slogan-white</title><path class="cls-1" d="M136.6,183.36h68.23q24.46,0,43.24,9.33A69.87,69.87,0,0,1,277.25,219q10.41,17,10.41,39.48t-10.41,39.48a69.85,69.85,0,0,1-29.18,26.28q-18.78,9.34-43.24,9.34H136.6ZM203.12,305q22.53,0,35.94-12.55t13.41-34q0-21.46-13.41-34t-35.94-12.56H171.36V305Z" transform="translate(-109.67 -182.07)"/><path class="cls-1" d="M308.69,183.36h34.76v150.2H308.69Z" transform="translate(-109.67 -182.07)"/><path class="cls-1" d="M517.46,183.36l-65,150.2H418.12l-64.81-150.2h37.55l45.71,107.28,46.35-107.28Z" transform="translate(-109.67 -182.07)"/><path class="cls-1" d="M641.05,305.66v27.9H524.76V183.36h113.5v27.89h-79v32.62H629v27H559.3v34.76Z" transform="translate(-109.67 -182.07)"/><path class="cls-2" d="M725.81,183.36h15.87v150.2H725.81Z" transform="translate(-109.67 -182.07)"/><path class="cls-2" d="M911,183.36v150.2H897.89L801.33,211.68V333.56H785.45V183.36h13.09l96.78,121.87V183.36Z" transform="translate(-109.67 -182.07)"/><path class="cls-2" d="M983.93,197.09H931.15V183.36h121.44v13.73H999.81V333.56H983.93Z" transform="translate(-109.67 -182.07)"/><path class="cls-2" d="M1095.83,324.87a72.79,72.79,0,0,1-28.32-27.36q-10.2-17.38-10.19-39.05t10.19-39a72.79,72.79,0,0,1,28.32-27.36q18.14-10,40.45-10t40.23,9.87a73.11,73.11,0,0,1,28.22,27.36,79.59,79.59,0,0,1,0,78.32A73,73,0,0,1,1176.51,325q-17.92,9.88-40.23,9.88T1095.83,324.87Zm72.63-12.23A58.16,58.16,0,0,0,1191,290.32a66.3,66.3,0,0,0,0-63.73,58.13,58.13,0,0,0-22.53-22.31,68.58,68.58,0,0,0-64.48,0,58.81,58.81,0,0,0-22.74,22.31,65.59,65.59,0,0,0,0,63.73A58.83,58.83,0,0,0,1104,312.64a68.66,68.66,0,0,0,64.48,0Z" transform="translate(-109.67 -182.07)"/><path class="cls-2" d="M109.67,433.15H177.9q24.47,0,43.24,9.34a69.85,69.85,0,0,1,29.18,26.28q10.41,17,10.41,39.49t-10.41,39.48A69.85,69.85,0,0,1,221.14,574q-18.78,9.33-43.24,9.34H109.67Zm66.52,121.67q22.53,0,35.94-12.56t13.41-34q0-21.47-13.41-34t-35.94-12.56H144.43v93.13Z" transform="translate(-109.67 -182.07)"/><path class="cls-2" d="M281.75,433.15h34.77V583.36H281.75Z" transform="translate(-109.67 -182.07)"/><path class="cls-2" d="M490.53,433.15l-65,150.21H391.18l-64.8-150.21h37.55l45.71,107.29L456,433.15Z" transform="translate(-109.67 -182.07)"/><path class="cls-2" d="M614.12,555.46v27.9H497.82V433.15H611.33v27.9h-79v32.61h69.74v27H532.37v34.76Z" transform="translate(-109.67 -182.07)"/><path class="cls-2" d="M732.35,583.36l-29-41.85h-32v41.85H636.65V433.15h65q20,0,34.65,6.66T759,458.69q7.93,12.22,7.94,29t-8,28.86q-8,12.12-22.85,18.56l33.69,48.28Zm-8.8-115.12q-8.14-6.76-23.81-6.76H671.41v52.35h28.33q15.66,0,23.81-6.86t8.16-19.31Q731.71,475,723.55,468.24Z" transform="translate(-109.67 -182.07)"/><path class="cls-2" d="M807.77,581.1q-16.63-4.83-26.71-12.55l11.8-26.18a79.71,79.71,0,0,0,23,11.37,85.89,85.89,0,0,0,26.6,4.3q14.8,0,21.89-4.4t7.08-11.7a11.17,11.17,0,0,0-4.18-8.9,31.76,31.76,0,0,0-10.73-5.69q-6.56-2.15-17.7-4.72a242.12,242.12,0,0,1-28.11-8.15,45.65,45.65,0,0,1-18.78-13.09q-7.83-9-7.83-24a41.8,41.8,0,0,1,7.08-23.71q7.08-10.62,21.35-16.85t34.87-6.22A116,116,0,0,1,875.47,434a83.2,83.2,0,0,1,24,9.87l-10.73,26.4q-20.82-11.8-41.63-11.81-14.58,0-21.56,4.72t-7,12.45q0,7.73,8,11.48t24.57,7.4a244.49,244.49,0,0,1,28.11,8.16,46.55,46.55,0,0,1,18.78,12.87q7.83,8.81,7.83,23.82a41,41,0,0,1-7.19,23.49q-7.18,10.62-21.57,16.85t-35,6.22A122.78,122.78,0,0,1,807.77,581.1Z" transform="translate(-109.67 -182.07)"/><path class="cls-2" d="M924.6,433.15h34.76V583.36H924.6Z" transform="translate(-109.67 -182.07)"/><path class="cls-2" d="M1024.16,461.48H976.1V433.15H1107v28.33h-48.07V583.36h-34.76Z" transform="translate(-109.67 -182.07)"/><path class="cls-2" d="M1198,530.14v53.22h-34.76V529.71l-58.15-96.56H1142l40.13,66.74,40.12-66.74h34.12Z" transform="translate(-109.67 -182.07)"/></svg>