<svg id="Layer_1" data-name="Layer 1" xmlns="http://www.w3.org/2000/svg" xmlns:xlink="http://www.w3.org/1999/xlink" viewBox="0 0 492.2 430.65"><defs><style>.cls-1{opacity:0.5;}.cls-2,.cls-3{fill:none;stroke-linecap:round;stroke-miterlimit:10;}.cls-2{stroke-width:21px;stroke:url(#linear-gradient);}.cls-3{stroke-width:7px;stroke:url(#linear-gradient-2);}</style><linearGradient id="linear-gradient" x1="162.74" y1="189.55" x2="509.96" y2="372.97" gradientUnits="userSpaceOnUse"><stop offset="0.03" stop-color="#2e53cc"/><stop offset="1" stop-color="#ff1983"/></linearGradient><linearGradient id="linear-gradient-2" x1="-22.56" y1="64.9" x2="381.34" y2="278.25" xlink:href="#linear-gradient"/></defs><title>pycon2018teaser</title><g class="cls-1"><path class="cls-2" d="M460.19,420.15a21.44,21.44,0,0,1-14.79-5.89L197.71,179.47a21.5,21.5,0,0,1,29.58-31.2L475,383.05a21.5,21.5,0,0,1-14.8,37.1Z"/></g><g class="cls-1"><path class="cls-3" d="M329.26,339.65a25.92,25.92,0,0,1-17.9-7.13L11.62,48.4a26,26,0,1,1,35.8-37.76L347.16,294.75a26,26,0,0,1-17.9,44.9Z"/></g></svg>