<svg id="Layer_1" data-name="Layer 1" xmlns="http://www.w3.org/2000/svg" viewBox="0 0 1093.18 383.6"><defs><style>.cls-1{fill:#fff;}</style></defs><title>pyconkr2018-slogan-white-left</title><path class="cls-1" d="M144.71,182.4h63.6q22.8,0,40.3,8.7a65.22,65.22,0,0,1,27.2,24.5q9.69,15.79,9.7,36.8t-9.7,36.8a65.22,65.22,0,0,1-27.2,24.5q-17.51,8.7-40.3,8.7h-63.6Zm62,113.4q21,0,33.5-11.7t12.5-31.7q0-20-12.5-31.7T206.71,209h-29.6v86.8Z" transform="translate(-144.71 -181.2)"/><path class="cls-1" d="M309.91,182.4h32.4v140h-32.4Z" transform="translate(-144.71 -181.2)"/><path class="cls-1" d="M509.3,182.4l-60.6,140h-32l-60.4-140h35l42.6,100,43.2-100Z" transform="translate(-144.71 -181.2)"/><path class="cls-1" d="M629.3,296.4v26H520.9v-140H626.7v26H553.1v30.4h65V264h-65v32.4Z" transform="translate(-144.71 -181.2)"/><path class="cls-1" d="M717.9,182.4h14.8v140H717.9Z" transform="translate(-144.71 -181.2)"/><path class="cls-1" d="M895.29,182.4v140h-12.2l-90-113.6V322.4h-14.8v-140h12.2L880.7,296V182.4Z" transform="translate(-144.71 -181.2)"/><path class="cls-1" d="M968.09,195.2h-49.2V182.4h113.2v12.8h-49.2V322.4h-14.8Z" transform="translate(-144.71 -181.2)"/><path class="cls-1" d="M1077.19,314.3a67.88,67.88,0,0,1-26.4-25.5,74.48,74.48,0,0,1,0-72.8,67.88,67.88,0,0,1,26.4-25.5,76.88,76.88,0,0,1,37.7-9.3q20.8,0,37.5,9.2a68.06,68.06,0,0,1,26.3,25.5,74.19,74.19,0,0,1,0,73,68.06,68.06,0,0,1-26.3,25.5q-16.7,9.19-37.5,9.2A76.88,76.88,0,0,1,1077.19,314.3Zm67.7-11.4a54.3,54.3,0,0,0,21-20.8,61.83,61.83,0,0,0,0-59.4,54.3,54.3,0,0,0-21-20.8,64,64,0,0,0-60.1,0,54.75,54.75,0,0,0-21.2,20.8,61.13,61.13,0,0,0,0,59.4,54.75,54.75,0,0,0,21.2,20.8,64,64,0,0,0,60.1,0Z" transform="translate(-144.71 -181.2)"/><path class="cls-1" d="M144.71,422.4h63.6q22.8,0,40.3,8.7a65.22,65.22,0,0,1,27.2,24.5q9.69,15.79,9.7,36.8t-9.7,36.8a65.22,65.22,0,0,1-27.2,24.5q-17.51,8.7-40.3,8.7h-63.6Zm62,113.4q21,0,33.5-11.7t12.5-31.7q0-20-12.5-31.7T206.71,449h-29.6v86.8Z" transform="translate(-144.71 -181.2)"/><path class="cls-1" d="M309.91,422.4h32.4v140h-32.4Z" transform="translate(-144.71 -181.2)"/><path class="cls-1" d="M509.3,422.4l-60.6,140h-32l-60.4-140h35l42.6,100,43.2-100Z" transform="translate(-144.71 -181.2)"/><path class="cls-1" d="M629.3,536.4v26H520.9v-140H626.7v26H553.1v30.4h65V504h-65v32.4Z" transform="translate(-144.71 -181.2)"/><path class="cls-1" d="M744.3,562.4l-27-39H687.5v39H655.1v-140h60.6q18.6,0,32.3,6.2t21.1,17.6q7.39,11.4,7.4,27T769,500.1q-7.5,11.29-21.3,17.3l31.4,45Zm-8.2-107.3q-7.61-6.3-22.2-6.3H687.5v48.8h26.4q14.6,0,22.2-6.4t7.6-18Q743.7,461.4,736.1,455.1Z" transform="translate(-144.71 -181.2)"/><path class="cls-1" d="M816,560.3q-15.51-4.5-24.9-11.7l11-24.4a74.69,74.69,0,0,0,21.4,10.6,80.23,80.23,0,0,0,24.8,4q13.8,0,20.4-4.1t6.6-10.9a10.42,10.42,0,0,0-3.9-8.3,29.57,29.57,0,0,0-10-5.3q-6.1-2-16.5-4.4a227.89,227.89,0,0,1-26.2-7.6A42.49,42.49,0,0,1,801.2,486q-7.31-8.4-7.3-22.4a39,39,0,0,1,6.6-22.1q6.6-9.9,19.9-15.7t32.5-5.8a107.84,107.84,0,0,1,26.2,3.2,77.35,77.35,0,0,1,22.4,9.2l-10,24.6q-19.41-11-38.8-11-13.61,0-20.1,4.4T826.1,462q0,7.2,7.5,10.7t22.9,6.9a228.49,228.49,0,0,1,26.2,7.6,43.34,43.34,0,0,1,17.5,12q7.29,8.21,7.3,22.2a38.28,38.28,0,0,1-6.7,21.9q-6.7,9.9-20.1,15.7t-32.6,5.8A114.51,114.51,0,0,1,816,560.3Z" transform="translate(-144.71 -181.2)"/><path class="cls-1" d="M929.69,422.4h32.4v140h-32.4Z" transform="translate(-144.71 -181.2)"/><path class="cls-1" d="M1024.29,448.8h-44.8V422.4h122v26.4h-44.8V562.4h-32.4Z" transform="translate(-144.71 -181.2)"/><path class="cls-1" d="M1183.49,512.8v49.6h-32.4v-50l-54.2-90h34.4l37.4,62.2,37.4-62.2h31.8Z" transform="translate(-144.71 -181.2)"/></svg>