<svg id="Layer_1" data-name="Layer 1" xmlns="http://www.w3.org/2000/svg" viewBox="0 0 295.74 74.2"><defs><style>.cls-1{fill:#fff;}</style></defs><title>pyconkr2018-logo-white</title><path id="path1948" class="cls-1" d="M109.81,91a50.29,50.29,0,0,0-8.47.72c-7.5,1.33-8.87,4.1-8.87,9.22v6.76H110.2V110H85.82a11.08,11.08,0,0,0-11.08,9,33.22,33.22,0,0,0,0,18c1.26,5.25,4.27,9,9.43,9h6.09v-8.1a11.27,11.27,0,0,1,11.08-11h17.71a8.93,8.93,0,0,0,8.86-9V101c0-4.8-4-8.41-8.86-9.22A56.58,56.58,0,0,0,109.81,91Zm-9.59,5.44a3.38,3.38,0,1,1-3.32,3.38A3.37,3.37,0,0,1,100.22,96.45Z" transform="translate(-73.5 -90.72)"/><path id="path1948-2" data-name="path1948" class="cls-1" d="M110.59,164.92a50.2,50.2,0,0,0,8.47-.72c7.51-1.33,8.87-4.1,8.87-9.22v-6.75H110.2V146h24.38c5.15,0,9.67-3.09,11.08-9a33.12,33.12,0,0,0,0-18c-1.26-5.24-4.27-9-9.43-9h-6.09v8.1a11.26,11.26,0,0,1-11.08,11H101.35a8.93,8.93,0,0,0-8.86,9V155c0,4.81,4.05,8.42,8.86,9.22A54.44,54.44,0,0,0,110.59,164.92Zm9.59-5.43a3.38,3.38,0,1,1,3.33-3.39A3.37,3.37,0,0,1,120.18,159.49Z" transform="translate(-73.5 -90.72)"/><path class="cls-1" d="M187.48,95.43q4.41,3.75,4.41,11.52t-4.53,11.37q-4.53,3.6-13.83,3.6H168v11.7h-9.36V91.68h14.82Q183.07,91.68,187.48,95.43Zm-6.87,16.5a8.06,8.06,0,0,0,1.68-5.52q0-3.63-2.19-5.16t-6.81-1.53H168v14.1h6.3Q178.93,113.82,180.61,111.93Z" transform="translate(-73.5 -90.72)"/><path class="cls-1" d="M217,133.62h-9.36V117.06L193.09,91.68h10.14l9.06,15.6,9.06-15.6h10.14L217,117.06Z" transform="translate(-73.5 -90.72)"/><path class="cls-1" d="M255.25,125.34a13.81,13.81,0,0,0,11.28-5.46l6,6.18q-7.14,8.06-16.83,8t-16-6.12a20.68,20.68,0,0,1-6.27-15.45A20.87,20.87,0,0,1,239.86,97a21.52,21.52,0,0,1,15.63-6.24,22.15,22.15,0,0,1,17.28,7.86l-5.82,6.6a13.64,13.64,0,0,0-11-5.52,12.87,12.87,0,0,0-9,3.45,12,12,0,0,0-3.75,9.3,12.69,12.69,0,0,0,3.54,9.39A11.68,11.68,0,0,0,255.25,125.34Z" transform="translate(-73.5 -90.72)"/><path class="cls-1" d="M314.29,127.83a22.85,22.85,0,0,1-31.32,0,21.95,21.95,0,0,1,0-30.9,22.85,22.85,0,0,1,31.32,0,21.95,21.95,0,0,1,0,30.9Zm-3.18-15.42a13.72,13.72,0,0,0-3.6-9.57,11.87,11.87,0,0,0-17.7,0,14.48,14.48,0,0,0,0,19.11,11.93,11.93,0,0,0,17.7,0A13.6,13.6,0,0,0,311.11,112.41Z" transform="translate(-73.5 -90.72)"/><path class="cls-1" d="M357.91,91.68h9.36v41.94h-9.36l-20-26.28v26.28h-9.36V91.68h8.76l20.58,27Z" transform="translate(-73.5 -90.72)"/><path class="cls-1" d="M166.21,151.64l-5.6,5.75V164h-1.82V139h1.82V155L176.21,139h2.21l-11,11.35L179.17,164H177Z" transform="translate(-73.5 -90.72)"/><path class="cls-1" d="M187,162.48a12.34,12.34,0,0,1-4.66-4.55,13.21,13.21,0,0,1,0-12.93,12.34,12.34,0,0,1,4.66-4.55,13.33,13.33,0,0,1,6.64-1.66,13.5,13.5,0,0,1,6.64,1.64,12.1,12.1,0,0,1,4.66,4.54,13.26,13.26,0,0,1,0,13,12.1,12.1,0,0,1-4.66,4.54,13.5,13.5,0,0,1-6.64,1.64A13.33,13.33,0,0,1,187,162.48ZM199.27,161a10.51,10.51,0,0,0,4-3.94,11.57,11.57,0,0,0,0-11.25,10.58,10.58,0,0,0-4-3.94,12,12,0,0,0-11.37,0,10.56,10.56,0,0,0-4,3.94,11.57,11.57,0,0,0,0,11.25,10.49,10.49,0,0,0,4,3.94,12,12,0,0,0,11.37,0Z" transform="translate(-73.5 -90.72)"/><path class="cls-1" d="M230.26,164l-6-8.35a18.06,18.06,0,0,1-2.42.18h-7.14V164h-1.82V139h9a11.2,11.2,0,0,1,7.39,2.23,7.64,7.64,0,0,1,2.67,6.2,7.59,7.59,0,0,1-5.85,7.81l6.25,8.75Zm-8.39-9.78a9.25,9.25,0,0,0,6.1-1.77,7,7,0,0,0,0-10,9.25,9.25,0,0,0-6.1-1.77h-7.14v13.57Z" transform="translate(-73.5 -90.72)"/><path class="cls-1" d="M255.85,162.32V164H238.61V139h16.71v1.64H240.43v9.86h13.32v1.6H240.43v10.25Z" transform="translate(-73.5 -90.72)"/><path class="cls-1" d="M278,156.93H263.46l-3.18,7h-2l11.49-25h1.82l11.5,25h-2Zm-.68-1.54L270.7,141l-6.53,14.42Z" transform="translate(-73.5 -90.72)"/><path class="cls-1" d="M311.12,162.32V164H293.94v-1.28l10.57-10.5a14.44,14.44,0,0,0,2.8-3.55,6.82,6.82,0,0,0,.73-3.06,4.61,4.61,0,0,0-1.62-3.74,7.11,7.11,0,0,0-4.69-1.36,11.13,11.13,0,0,0-4.13.71,8.12,8.12,0,0,0-3.05,2.18l-1.29-1.14a9.45,9.45,0,0,1,3.63-2.54,13.2,13.2,0,0,1,5-.89,8.94,8.94,0,0,1,5.85,1.79,5.9,5.9,0,0,1,2.18,4.82,8.11,8.11,0,0,1-.86,3.67,15.94,15.94,0,0,1-3.21,4.07l-9.21,9.18Z" transform="translate(-73.5 -90.72)"/><path class="cls-1" d="M319.09,162.59a10.16,10.16,0,0,1-3.46-4.41,18.94,18.94,0,0,1,0-13.43,10.16,10.16,0,0,1,3.46-4.41,9.13,9.13,0,0,1,10.18,0,10.16,10.16,0,0,1,3.46,4.41,18.94,18.94,0,0,1,0,13.43,10.16,10.16,0,0,1-3.46,4.41,9.13,9.13,0,0,1-10.18,0Zm9.25-1.43a8.34,8.34,0,0,0,2.8-3.79,17.93,17.93,0,0,0,0-11.81,8.34,8.34,0,0,0-2.8-3.79,7.31,7.31,0,0,0-8.32,0,8.41,8.41,0,0,0-2.8,3.79,17.93,17.93,0,0,0,0,11.81,8.41,8.41,0,0,0,2.8,3.79,7.31,7.31,0,0,0,8.32,0Z" transform="translate(-73.5 -90.72)"/><path class="cls-1" d="M344.14,139v25h-1.82V140.61h-6.11V139Z" transform="translate(-73.5 -90.72)"/><path class="cls-1" d="M367.82,153.18a5.74,5.74,0,0,1,1.41,3.93,6,6,0,0,1-2.53,5.15,11.48,11.48,0,0,1-7,1.88,11.34,11.34,0,0,1-6.91-1.88,6.06,6.06,0,0,1-2.52-5.15,5.82,5.82,0,0,1,1.38-4,7.64,7.64,0,0,1,3.94-2.27,6.78,6.78,0,0,1-3.28-2.14,5.44,5.44,0,0,1-1.15-3.5,5.59,5.59,0,0,1,2.33-4.73,10.15,10.15,0,0,1,6.21-1.73,10.31,10.31,0,0,1,6.25,1.75,5.57,5.57,0,0,1,2.35,4.71,5.39,5.39,0,0,1-1.16,3.48,6.81,6.81,0,0,1-3.34,2.16A7.8,7.8,0,0,1,367.82,153.18Zm-2.44,7.92a4.92,4.92,0,0,0,0-8,9.57,9.57,0,0,0-5.64-1.46,9.42,9.42,0,0,0-5.59,1.46,4.95,4.95,0,0,0,0,8,9.33,9.33,0,0,0,5.61,1.47A9.5,9.5,0,0,0,365.38,161.1Zm-10.59-12.24a8.14,8.14,0,0,0,4.95,1.32,8.35,8.35,0,0,0,5-1.3,4.16,4.16,0,0,0,1.8-3.55,4.24,4.24,0,0,0-1.84-3.63,9.78,9.78,0,0,0-9.85,0,4.51,4.51,0,0,0,0,7.18Z" transform="translate(-73.5 -90.72)"/></svg>